<?xml version="1.0" encoding="UTF-8" standalone="no"?>
<!-- Created with Inkscape (http://www.inkscape.org/) -->

<svg
   xmlns:dc="http://purl.org/dc/elements/1.1/"
   xmlns:cc="http://creativecommons.org/ns#"
   xmlns:rdf="http://www.w3.org/1999/02/22-rdf-syntax-ns#"
   xmlns:svg="http://www.w3.org/2000/svg"
   xmlns="http://www.w3.org/2000/svg"
   xmlns:sodipodi="http://sodipodi.sourceforge.net/DTD/sodipodi-0.dtd"
   xmlns:inkscape="http://www.inkscape.org/namespaces/inkscape"
   width="744.09448819"
   height="1052.3622047"
   id="svg2"
   version="1.1"
   inkscape:version="0.48.2 r9819"
   sodipodi:docname="brexit-logo-drafts.svg">
  <defs
     id="defs4" />
  <sodipodi:namedview
     id="base"
     pagecolor="#ffffff"
     bordercolor="#666666"
     borderopacity="1.0"
     inkscape:pageopacity="0.0"
     inkscape:pageshadow="2"
     inkscape:zoom="0.98994949"
     inkscape:cx="972.8771"
     inkscape:cy="52.276569"
     inkscape:document-units="px"
     inkscape:current-layer="layer1"
     showgrid="false"
     inkscape:window-width="1920"
     inkscape:window-height="1018"
     inkscape:window-x="1912"
     inkscape:window-y="-8"
     inkscape:window-maximized="1" />
  <metadata
     id="metadata7">
    <rdf:RDF>
      <cc:Work
         rdf:about="">
        <dc:format>image/svg+xml</dc:format>
        <dc:type
           rdf:resource="http://purl.org/dc/dcmitype/StillImage" />
        <dc:title></dc:title>
      </cc:Work>
    </rdf:RDF>
  </metadata>
  <g
     inkscape:label="Layer 1"
     inkscape:groupmode="layer"
     id="layer1">
    <rect
       style="color:#000000;fill:#ffffff;fill-opacity:1;stroke:#ffffff;stroke-width:0.99770755;stroke-linecap:butt;stroke-linejoin:miter;stroke-miterlimit:4;stroke-opacity:1;stroke-dasharray:none;stroke-dashoffset:0;marker:none;visibility:visible;display:inline;overflow:visible;enable-background:accumulate"
       id="rect5486"
       width="288.401"
       height="185.87033"
       x="1183.3926"
       y="929.62744"
       ry="0.50099832"
       inkscape:export-filename="D:\Users\Matija\Dropbox\brexit2016\logo\brexit-logo-v2.png"
       inkscape:export-xdpi="130.78999"
       inkscape:export-ydpi="130.78999" />
    <rect
       style="color:#000000;fill:#ffffff;fill-opacity:1;fill-rule:nonzero;stroke:none;stroke-width:3;marker:none;visibility:visible;display:inline;overflow:visible;enable-background:accumulate"
       id="rect4697"
       width="226.77924"
       height="114.14725"
       x="-268.70056"
       y="882.65662"
       inkscape:export-filename="D:\Users\Matija\Dropbox\brexit2016\logo\brexit-logo.png"
       inkscape:export-xdpi="261.76715"
       inkscape:export-ydpi="261.76715" />
    <path
       id="path3039"
       d="m 115.57214,12.500518 2.84214,8.05275 h 8.52644 l -6.63168,5.21061 2.36846,8.05274 -7.10536,-4.73691 -7.10538,4.73691 2.36846,-8.05274 -6.63168,-5.21061 h 8.52644 z"
       inkscape:connector-curvature="0"
       style="fill:none;stroke:#000000;stroke-width:0.28421476;stroke-miterlimit:4;stroke-dasharray:none" />
    <path
       id="path3039-4"
       d="m 117.3047,191.71061 2.84214,8.05275 h 8.52645 l -6.63168,5.21061 2.36846,8.05275 -7.10537,-4.73691 -7.10538,4.73691 2.36846,-8.05275 -6.63168,-5.21061 h 8.52644 z"
       inkscape:connector-curvature="0"
       style="fill:none;stroke:#000000;stroke-width:0.28421476;stroke-miterlimit:4;stroke-dasharray:none" />
    <path
       id="path3039-9"
       d="m 27.694228,100.92619 2.842143,8.05275 h 8.526444 l -6.631677,5.21061 2.368459,8.05275 -7.105369,-4.73691 -7.105375,4.73691 2.368452,-8.05275 -6.63167,-5.21061 h 8.526443 z"
       inkscape:connector-curvature="0"
       style="fill:none;stroke:#000000;stroke-width:0.28421476;stroke-miterlimit:4;stroke-dasharray:none" />
    <path
       id="path3039-48"
       d="m 67.608059,27.750818 2.84215,8.05276 h 8.526434 l -6.631676,5.21061 2.368458,8.05275 -7.105366,-4.73692 -7.105368,4.73692 2.368451,-8.05275 -6.631676,-5.21061 h 8.526443 z"
       inkscape:connector-curvature="0"
       style="fill:none;stroke:#000000;stroke-width:0.28421476;stroke-miterlimit:4;stroke-dasharray:none" />
    <path
       id="path3039-8"
       d="m 160.34903,23.446388 2.84215,8.05275 h 8.52645 l -6.63168,5.21061 2.36845,8.05275 -7.10537,-4.73691 -7.10537,4.73691 2.36846,-8.05275 -6.63168,-5.21061 h 8.52644 z"
       inkscape:connector-curvature="0"
       style="fill:none;stroke:#000000;stroke-width:0.28421476;stroke-miterlimit:4;stroke-dasharray:none" />
    <path
       id="path3039-2"
       d="m 195.17581,145.14447 2.84215,8.05274 h 8.52644 l -6.63168,5.21062 2.36846,8.05274 -7.10537,-4.73691 -7.10537,4.73691 2.36846,-8.05274 -6.63168,-5.21062 h 8.52644 z"
       inkscape:connector-curvature="0"
       style="fill:none;stroke:#000000;stroke-width:0.28421476;stroke-miterlimit:4;stroke-dasharray:none" />
    <path
       id="path3039-45"
       d="m 70.347248,178.79731 2.842147,8.05275 h 8.526444 l -6.631677,5.2106 2.368451,8.05276 -7.105365,-4.73692 -7.105375,4.73692 2.368458,-8.05276 -6.631677,-5.2106 h 8.526444 z"
       inkscape:connector-curvature="0"
       style="fill:none;stroke:#000000;stroke-width:0.28421476;stroke-miterlimit:4;stroke-dasharray:none" />
    <path
       id="path3039-5"
       d="m 39.04227,60.621048 2.84215,8.05274 h 8.526444 l -6.631677,5.21061 2.368452,8.05275 -7.105369,-4.73691 -7.105368,4.73691 2.368451,-8.05275 -6.63167,-5.21061 h 8.526437 z"
       inkscape:connector-curvature="0"
       style="fill:none;stroke:#000000;stroke-width:0.28421476;stroke-miterlimit:4;stroke-dasharray:none" />
    <path
       id="path3039-1"
       d="m 39.824899,149.05759 2.842144,8.05274 h 8.526443 l -6.631677,5.21062 2.368452,8.05274 -7.105362,-4.73691 -7.105375,4.73691 2.368459,-8.05274 -6.631677,-5.21062 h 8.526443 z"
       inkscape:connector-curvature="0"
       style="fill:none;stroke:#000000;stroke-width:0.28421476;stroke-miterlimit:4;stroke-dasharray:none" />
    <path
       id="path3039-7"
       d="m 166.21871,178.01468 2.84215,8.05275 h 8.52645 l -6.63169,5.21061 2.36846,8.05275 -7.10537,-4.73692 -7.10537,4.73692 2.36845,-8.05275 -6.63167,-5.21061 h 8.52644 z"
       inkscape:connector-curvature="0"
       style="fill:none;stroke:#000000;stroke-width:0.28421476;stroke-miterlimit:4;stroke-dasharray:none" />
    <path
       id="path3039-11"
       d="m 194.39319,54.751358 2.84215,8.05275 h 8.52644 l -6.63168,5.21061 2.36845,8.05275 -7.10536,-4.73692 -7.10537,4.73692 2.36845,-8.05275 -6.63168,-5.21061 h 8.52645 z"
       inkscape:connector-curvature="0"
       style="fill:none;stroke:#000000;stroke-width:0.28421476;stroke-miterlimit:4;stroke-dasharray:none" />
    <text
       xml:space="preserve"
       style="font-size:65.2915802px;font-style:normal;font-variant:normal;font-weight:normal;font-stretch:normal;line-height:125%;letter-spacing:0px;word-spacing:0px;fill:#000000;fill-opacity:1;stroke:none;font-family:Lato;-inkscape-font-specification:Lato"
       x="53.990131"
       y="134.9541"
       id="text3906"
       sodipodi:linespacing="125%"><tspan
         sodipodi:role="line"
         id="tspan3908"
         x="53.990131"
         y="134.9541">BREXIT</tspan></text>
    <path
       id="path3039-52"
       d="m 118.21535,244.27296 2.88828,8.18349 h 8.66486 l -6.73933,5.29519 2.4069,8.18347 -7.22071,-4.8138 -7.22072,4.8138 2.4069,-8.18347 -6.73934,-5.29519 h 8.66487 z"
       inkscape:connector-curvature="0"
       style="fill:none;stroke:#000000;stroke-width:0.28882882;stroke-miterlimit:4;stroke-dasharray:none" />
    <path
       id="path3039-4-7"
       d="m 119.97603,426.39243 2.8883,8.18346 h 8.66485 l -6.73933,5.29521 2.40691,8.18348 -7.22073,-4.81381 -7.22072,4.81381 2.4069,-8.18348 -6.73934,-5.29521 h 8.66487 z"
       inkscape:connector-curvature="0"
       style="fill:none;stroke:#000000;stroke-width:0.28882882;stroke-miterlimit:4;stroke-dasharray:none" />
    <path
       id="path3039-0-6"
       d="m 224.74733,323.54641 6.23333,17.66108 h 18.69996 l -14.54443,11.42775 5.19444,17.66106 -15.5833,-10.38886 -15.58332,10.38886 5.19445,-17.66106 -14.54441,-11.42775 H 218.514 z"
       inkscape:connector-curvature="0"
       style="fill:none;stroke:#000000;stroke-width:0.62333202;stroke-miterlimit:4;stroke-dasharray:none" />
    <path
       id="path3039-9-1"
       d="m 28.910795,334.13417 2.888284,8.18348 h 8.664865 l -6.739338,5.29521 2.406909,8.18347 -7.22072,-4.81381 -7.220726,4.81381 2.406902,-8.18347 -6.739331,-5.29521 h 8.664865 z"
       inkscape:connector-curvature="0"
       style="fill:none;stroke:#000000;stroke-width:0.28882882;stroke-miterlimit:4;stroke-dasharray:none" />
    <path
       id="path3039-48-4"
       d="m 69.472602,259.77085 2.888291,8.18348 h 8.664857 l -6.739337,5.2952 2.406909,8.18348 -7.22072,-4.81382 -7.220719,4.81382 2.406902,-8.18348 -6.739338,-5.2952 h 8.664865 z"
       inkscape:connector-curvature="0"
       style="fill:none;stroke:#000000;stroke-width:0.28882882;stroke-miterlimit:4;stroke-dasharray:none" />
    <path
       id="path3039-8-2"
       d="m 163.71917,255.39653 2.88829,8.18349 h 8.66486 l -6.73933,5.2952 2.40689,8.18348 -7.22071,-4.81382 -7.22073,4.81382 2.40691,-8.18348 -6.73934,-5.2952 h 8.66486 z"
       inkscape:connector-curvature="0"
       style="fill:none;stroke:#000000;stroke-width:0.28882882;stroke-miterlimit:4;stroke-dasharray:none" />
    <path
       id="path3039-2-3"
       d="m 199.11133,379.0703 2.8883,8.18348 h 8.66485 l -6.73933,5.29521 2.4069,8.18348 -7.22072,-4.81382 -7.22071,4.81382 2.4069,-8.18348 -6.73933,-5.29521 h 8.66486 z"
       inkscape:connector-curvature="0"
       style="fill:none;stroke:#000000;stroke-width:0.28882882;stroke-miterlimit:4;stroke-dasharray:none" />
    <path
       id="path3039-45-2"
       d="m 72.25626,413.26948 2.88829,8.18348 h 8.664865 l -6.739338,5.29519 2.406902,8.18349 -7.220719,-4.81381 -7.220726,4.81381 2.406908,-8.18349 -6.739337,-5.29519 h 8.664865 z"
       inkscape:connector-curvature="0"
       style="fill:none;stroke:#000000;stroke-width:0.28882882;stroke-miterlimit:4;stroke-dasharray:none" />
    <path
       id="path3039-5-2"
       d="m 40.443065,293.17469 2.888291,8.18348 h 8.664865 l -6.739338,5.29521 2.406903,8.18347 -7.220721,-4.81381 -7.220719,4.81381 2.406902,-8.18347 -6.739331,-5.29521 h 8.664858 z"
       inkscape:connector-curvature="0"
       style="fill:none;stroke:#000000;stroke-width:0.28882882;stroke-miterlimit:4;stroke-dasharray:none" />
    <path
       id="path3039-1-1"
       d="m 41.238401,383.04696 2.888283,8.18347 h 8.664865 l -6.739338,5.2952 2.406903,8.18348 -7.220713,-4.81382 -7.220727,4.81382 2.406909,-8.18348 -6.739339,-5.2952 h 8.664865 z"
       inkscape:connector-curvature="0"
       style="fill:none;stroke:#000000;stroke-width:0.28882882;stroke-miterlimit:4;stroke-dasharray:none" />
    <path
       id="path3039-7-6"
       d="m 169.68414,412.47414 2.88829,8.18349 h 8.66486 l -6.73934,5.2952 2.40691,8.18348 -7.22072,-4.81382 -7.22072,4.81382 2.4069,-8.18348 -6.73933,-5.2952 h 8.66486 z"
       inkscape:connector-curvature="0"
       style="fill:none;stroke:#000000;stroke-width:0.28882882;stroke-miterlimit:4;stroke-dasharray:none" />
    <path
       id="path3039-11-8"
       d="m 198.31601,287.20972 2.88828,8.18349 h 8.66487 l -6.73933,5.29519 2.40689,8.18348 -7.22071,-4.81381 -7.22072,4.81381 2.4069,-8.18348 -6.73934,-5.29519 h 8.66487 z"
       inkscape:connector-curvature="0"
       style="fill:none;stroke:#000000;stroke-width:0.28882882;stroke-miterlimit:4;stroke-dasharray:none" />
    <text
       xml:space="preserve"
       style="font-size:66.35154724px;font-style:normal;font-variant:normal;font-weight:normal;font-stretch:normal;line-height:125%;letter-spacing:0px;word-spacing:0px;fill:#000000;fill-opacity:1;stroke:none;font-family:Lato;-inkscape-font-specification:Lato"
       x="73.379395"
       y="370.66037"
       id="text3906-5"
       sodipodi:linespacing="125%"><tspan
         sodipodi:role="line"
         id="tspan3908-7"
         x="73.379395"
         y="370.66037">BRE    IT</tspan></text>
    <path
       id="path3039-6"
       d="m 424.89294,9.7245185 2.81868,7.9862595 h 8.45602 l -6.57691,5.16758 2.3489,7.98624 -7.04669,-4.69779 -7.0467,4.69779 2.3489,-7.98624 -6.57692,-5.16758 h 8.45604 z"
       inkscape:connector-curvature="0"
       style="fill:#4575b4;stroke:none;stroke-width:0.28186777000000002;stroke-miterlimit:4;stroke-dasharray:none;fill-opacity:1" />
    <path
       id="path3039-4-1"
       d="m 426.6112,187.45473 2.81867,7.98625 h 8.45603 l -6.57691,5.16758 2.3489,7.98625 -7.04669,-4.69779 -7.0467,4.69779 2.34889,-7.98625 -6.57691,-5.16758 h 8.45603 z"
       inkscape:connector-curvature="0"
       style="fill:#4575b4;stroke:none;stroke-width:0.28186777000000002;stroke-miterlimit:4;stroke-dasharray:none;fill-opacity:1" />
    <path
       id="path3039-9-8"
       d="m 337.74072,97.419988 2.81867,7.986262 h 8.45604 l -6.57692,5.16758 2.3489,7.98624 -7.04669,-4.69779 -7.0467,4.69779 2.34889,-7.98624 -6.5769,-5.16758 h 8.45603 z"
       inkscape:connector-curvature="0"
       style="fill:#4575b4;stroke:none;stroke-width:0.28186777000000002;stroke-miterlimit:4;stroke-dasharray:none;fill-opacity:1" />
    <path
       id="path3039-48-9"
       d="m 377.32495,24.848888 2.81868,7.98626 h 8.45602 l -6.57691,5.16758 2.3489,7.98625 -7.04669,-4.6978 -7.04669,4.6978 2.34889,-7.98625 -6.57691,-5.16758 h 8.45603 z"
       inkscape:connector-curvature="0"
       style="fill:#4575b4;stroke:none;stroke-width:0.28186777000000002;stroke-miterlimit:4;stroke-dasharray:none;fill-opacity:1" />
    <path
       id="path3039-8-27"
       d="m 469.30008,20.580008 2.81868,7.98625 h 8.45603 l -6.57691,5.16758 2.34889,7.98625 -7.04669,-4.6978 -7.0467,4.6978 2.3489,-7.98625 -6.57691,-5.16758 h 8.45602 z"
       inkscape:connector-curvature="0"
       style="fill:#4575b4;stroke:none;stroke-width:0.28186777000000002;stroke-miterlimit:4;stroke-dasharray:none;fill-opacity:1" />
    <path
       id="path3039-2-9"
       d="m 503.83926,141.27312 2.81868,7.98625 h 8.45603 l -6.57692,5.16759 2.3489,7.98624 -7.04669,-4.69779 -7.04669,4.69779 2.3489,-7.98624 -6.57692,-5.16759 h 8.45603 z"
       inkscape:connector-curvature="0"
       style="fill:#4575b4;stroke:none;stroke-width:0.28186777000000002;stroke-miterlimit:4;stroke-dasharray:none;fill-opacity:1" />
    <path
       id="path3039-45-5"
       d="m 380.04152,174.64806 2.81867,7.98625 h 8.45604 l -6.57692,5.16758 2.3489,7.98626 -7.04669,-4.6978 -7.0467,4.6978 2.3489,-7.98626 -6.57691,-5.16758 h 8.45603 z"
       inkscape:connector-curvature="0"
       style="fill:#4575b4;stroke:none;stroke-width:0.28186777000000002;stroke-miterlimit:4;stroke-dasharray:none;fill-opacity:1" />
    <path
       id="path3039-5-4"
       d="m 348.99505,57.447678 2.81868,7.98625 h 8.45604 l -6.57692,5.16758 2.3489,7.98625 -7.0467,-4.69779 -7.04669,4.69779 2.34889,-7.98625 -6.5769,-5.16758 h 8.45602 z"
       inkscape:connector-curvature="0"
       style="fill:#4575b4;stroke:none;stroke-width:0.28186777000000002;stroke-miterlimit:4;stroke-dasharray:none;fill-opacity:1" />
    <path
       id="path3039-1-3"
       d="m 349.77122,145.15393 2.81867,7.98624 h 8.45604 l -6.57692,5.16759 2.3489,7.98625 -7.04669,-4.6978 -7.0467,4.6978 2.3489,-7.98625 -6.57691,-5.16759 h 8.45603 z"
       inkscape:connector-curvature="0"
       style="fill:#4575b4;stroke:none;stroke-width:0.28186777000000002;stroke-miterlimit:4;stroke-dasharray:none;fill-opacity:1" />
    <path
       id="path3039-7-1"
       d="m 475.12129,173.87189 2.81868,7.98626 h 8.45603 l -6.57692,5.16758 2.3489,7.98625 -7.04669,-4.6978 -7.0467,4.6978 2.3489,-7.98625 -6.57692,-5.16758 h 8.45604 z"
       inkscape:connector-curvature="0"
       style="fill:#4575b4;stroke:none;stroke-width:0.28186777000000002;stroke-miterlimit:4;stroke-dasharray:none;fill-opacity:1" />
    <path
       id="path3039-11-2"
       d="m 503.0631,51.626468 2.81868,7.98625 h 8.45603 l -6.57691,5.16758 2.34889,7.98625 -7.04669,-4.6978 -7.04669,4.6978 2.34889,-7.98625 -6.57691,-5.16758 h 8.45603 z"
       inkscape:connector-curvature="0"
       style="fill:#4575b4;stroke:none;stroke-width:0.28186777000000002;stroke-miterlimit:4;stroke-dasharray:none;fill-opacity:1" />
    <text
       xml:space="preserve"
       style="font-size:64.75241088999999300px;font-style:normal;font-variant:normal;font-weight:normal;font-stretch:normal;line-height:125%;letter-spacing:0px;word-spacing:0px;fill:#f11b1b;fill-opacity:1;stroke:none;font-family:Lato;-inkscape-font-specification:Lato"
       x="363.81949"
       y="131.1669"
       id="text3906-3"
       sodipodi:linespacing="125%"><tspan
         sodipodi:role="line"
         id="tspan3908-3"
         x="363.81949"
         y="131.1669"><tspan
   style="fill:#4575b4;fill-opacity:1"
   id="tspan4021">BR</tspan>EXIT</tspan></text>
    <path
       id="path3039-11-2-4"
       d="m 598.92859,96.434998 2.81868,7.986242 h 8.45603 l -6.57691,5.16758 2.34889,7.98625 -7.04669,-4.6978 -7.04669,4.6978 2.34889,-7.98625 -6.57691,-5.16758 h 8.45603 z"
       inkscape:connector-curvature="0"
       style="fill:#f11b1b;fill-opacity:1;stroke:none" />
    <path
       id="path3039-6-1"
       d="m 447.27257,250.06989 2.81868,7.98626 h 8.45602 l -6.57691,5.16758 2.3489,7.98624 -7.04669,-4.69779 -7.0467,4.69779 2.3489,-7.98624 -6.57692,-5.16758 h 8.45604 z"
       inkscape:connector-curvature="0"
       style="fill:#4575b4;fill-opacity:1;stroke:none" />
    <path
       id="path3039-4-1-1"
       d="m 448.99083,427.8001 2.81867,7.98625 h 8.45603 l -6.57691,5.16758 2.3489,7.98625 -7.04669,-4.69779 -7.0467,4.69779 2.34889,-7.98625 -6.57691,-5.16758 h 8.45603 z"
       inkscape:connector-curvature="0"
       style="fill:#4575b4;fill-opacity:1;stroke:none" />
    <path
       id="path3039-9-8-3"
       d="m 360.12035,337.76536 2.81867,7.98627 h 8.45604 l -6.57692,5.16757 2.3489,7.98624 -7.04669,-4.69779 -7.0467,4.69779 2.34889,-7.98624 -6.5769,-5.16757 h 8.45603 z"
       inkscape:connector-curvature="0"
       style="fill:#4575b4;fill-opacity:1;stroke:none" />
    <path
       id="path3039-48-9-8"
       d="m 399.70458,265.19426 2.81868,7.98626 h 8.45602 l -6.57691,5.16758 2.3489,7.98625 -7.04669,-4.6978 -7.04669,4.6978 2.34889,-7.98625 -6.57691,-5.16758 h 8.45603 z"
       inkscape:connector-curvature="0"
       style="fill:#4575b4;fill-opacity:1;stroke:none" />
    <path
       id="path3039-8-27-7"
       d="m 491.67971,260.92538 2.81868,7.98625 h 8.45603 l -6.57691,5.16758 2.34889,7.98625 -7.04669,-4.6978 -7.0467,4.6978 2.3489,-7.98625 -6.57691,-5.16758 h 8.45602 z"
       inkscape:connector-curvature="0"
       style="fill:#4575b4;fill-opacity:1;stroke:none" />
    <path
       id="path3039-2-9-4"
       d="m 526.21889,381.61849 2.81868,7.98625 h 8.45603 l -6.57692,5.16759 2.3489,7.98624 -7.04669,-4.69779 -7.04669,4.69779 2.3489,-7.98624 -6.57692,-5.16759 h 8.45603 z"
       inkscape:connector-curvature="0"
       style="fill:#4575b4;fill-opacity:1;stroke:none" />
    <path
       id="path3039-45-5-2"
       d="m 402.42115,414.99343 2.81867,7.98625 h 8.45604 l -6.57692,5.16758 2.3489,7.98626 -7.04669,-4.6978 -7.0467,4.6978 2.3489,-7.98626 -6.57691,-5.16758 h 8.45603 z"
       inkscape:connector-curvature="0"
       style="fill:#4575b4;fill-opacity:1;stroke:none" />
    <path
       id="path3039-5-4-7"
       d="m 371.37468,297.79305 2.81868,7.98625 h 8.45604 l -6.57692,5.16758 2.3489,7.98625 -7.0467,-4.69779 -7.04669,4.69779 2.34889,-7.98625 -6.5769,-5.16758 h 8.45602 z"
       inkscape:connector-curvature="0"
       style="fill:#4575b4;fill-opacity:1;stroke:none" />
    <path
       id="path3039-1-3-7"
       d="m 372.15085,385.4993 2.81867,7.98624 h 8.45604 l -6.57692,5.16759 2.3489,7.98625 -7.04669,-4.6978 -7.0467,4.6978 2.3489,-7.98625 -6.57691,-5.16759 h 8.45603 z"
       inkscape:connector-curvature="0"
       style="fill:#4575b4;fill-opacity:1;stroke:none" />
    <path
       id="path3039-7-1-9"
       d="m 497.50092,414.21726 2.81868,7.98626 h 8.45603 l -6.57692,5.16758 2.3489,7.98625 -7.04669,-4.6978 -7.0467,4.6978 2.3489,-7.98625 -6.57692,-5.16758 h 8.45604 z"
       inkscape:connector-curvature="0"
       style="fill:#4575b4;fill-opacity:1;stroke:none" />
    <path
       id="path3039-11-2-3"
       d="m 525.44273,291.97184 2.81868,7.98625 h 8.45603 l -6.57691,5.16758 2.34889,7.98625 -7.04669,-4.6978 -7.04669,4.6978 2.34889,-7.98625 -6.57691,-5.16758 h 8.45603 z"
       inkscape:connector-curvature="0"
       style="fill:#4575b4;fill-opacity:1;stroke:none" />
    <text
       xml:space="preserve"
       style="font-size:64.75241089px;font-style:normal;font-variant:normal;font-weight:normal;font-stretch:normal;line-height:125%;letter-spacing:0px;word-spacing:0px;fill:#f11b1b;fill-opacity:1;stroke:none;font-family:Lato;-inkscape-font-specification:Lato"
       x="386.19913"
       y="371.51227"
       id="text3906-3-1"
       sodipodi:linespacing="125%"><tspan
         sodipodi:role="line"
         id="tspan3908-3-9"
         x="386.19913"
         y="371.51227"><tspan
   style="fill:#4575b4;fill-opacity:1"
   id="tspan4021-8">BR</tspan>E    IT</tspan></text>
    <path
       id="path3039-11-2-4-6"
       d="m 534.43031,325.20693 6.18585,17.52659 h 18.55756 l -14.43365,11.34073 5.15487,17.52657 -15.46463,-10.30976 -15.46463,10.30976 5.15486,-17.52657 -14.43365,-11.34073 h 18.55757 z"
       inkscape:connector-curvature="0"
       style="fill:#f11b1b;fill-opacity:1;stroke:none" />
    <text
       xml:space="preserve"
       style="font-size:64.75241089px;font-style:normal;font-variant:normal;font-weight:normal;font-stretch:normal;line-height:125%;letter-spacing:0px;word-spacing:0px;fill:#f11b1b;fill-opacity:1;stroke:none;font-family:Lato;-inkscape-font-specification:Lato"
       x="69.512283"
       y="607.22656"
       id="text3906-3-1-0"
       sodipodi:linespacing="125%"><tspan
         sodipodi:role="line"
         id="tspan3908-3-9-9"
         x="69.512283"
         y="607.22656"><tspan
   style="fill:#4575b4;fill-opacity:1"
   id="tspan4021-8-0">BR</tspan>E    IT</tspan></text>
    <path
       id="path3039-11-2-4-6-0"
       d="m 216.22823,564.42518 5.11256,14.48561 h 15.3377 l -11.92931,9.37304 4.26046,14.48559 -12.78141,-8.52095 -12.78141,8.52095 4.26045,-14.48559 -11.92931,-9.37304 h 15.33771 z"
       inkscape:connector-curvature="0"
       style="fill:#f11b1b;fill-opacity:1;stroke:none" />
    <path
       id="path3039-11-2-4-6-0-6"
       d="m 207.08127,517.25465 5.11256,14.48561 h 15.3377 l -11.92931,9.37304 4.26046,14.48559 -12.78141,-8.52095 -12.78141,8.52095 4.26045,-14.48559 -11.92931,-9.37304 h 15.33771 z"
       inkscape:connector-curvature="0"
       style="fill:#4575b4;fill-opacity:1;stroke:none" />
    <path
       id="path3039-11-2-4-6-0-6-1"
       d="m 172.23101,490.99068 5.11256,14.48561 h 15.3377 l -11.92931,9.37304 4.26046,14.48559 -12.78141,-8.52095 -12.78141,8.52095 4.26045,-14.48559 -11.92931,-9.37304 h 15.33771 z"
       inkscape:connector-curvature="0"
       style="fill:#4575b4;fill-opacity:1;stroke:none" />
    <path
       id="path3039-11-2-4-6-0-6-3"
       d="m 133.34014,479.37393 5.11256,14.48561 h 15.3377 l -11.92931,9.37304 4.26046,14.48559 -12.78141,-8.52095 -12.78141,8.52095 4.26045,-14.48559 -11.92931,-9.37304 h 15.33771 z"
       inkscape:connector-curvature="0"
       style="fill:#4575b4;fill-opacity:1;stroke:none" />
    <path
       id="path3039-11-2-4-6-0-6-8"
       d="m 87.125662,494.77875 5.11256,14.48561 h 15.337698 l -11.929308,9.37304 4.26046,14.48559 -12.78141,-8.52095 -12.78141,8.52095 4.26045,-14.48559 -11.92931,-9.37304 h 15.33771 z"
       inkscape:connector-curvature="0"
       style="fill:#4575b4;fill-opacity:1;stroke:none" />
    <path
       id="path3039-11-2-4-6-0-6-9"
       d="m 56.316009,526.34602 5.11256,14.48561 h 15.3377 l -11.92931,9.37304 4.26046,14.48559 -12.78141,-8.52095 -12.78141,8.52095 4.26045,-14.48559 -11.92931,-9.37304 h 15.33771 z"
       inkscape:connector-curvature="0"
       style="fill:#4575b4;fill-opacity:1;stroke:none" />
    <path
       id="path3039-11-2-4-6-0-6-34"
       d="m 42.67895,567.00466 5.11256,14.48561 h 15.3377 l -11.92931,9.37304 4.26046,14.48559 -12.78141,-8.52095 -12.78141,8.52095 4.26045,-14.48559 -11.92931,-9.37304 h 15.33771 z"
       inkscape:connector-curvature="0"
       style="fill:#4575b4;fill-opacity:1;stroke:none" />
    <path
       id="path3039-11-2-4-6-0-6-4"
       d="m 55.558395,613.97676 5.11256,14.48561 h 15.3377 l -11.92931,9.37304 4.26046,14.48559 -12.78141,-8.52095 -12.78141,8.52095 4.26045,-14.48559 -11.92931,-9.37304 h 15.33771 z"
       inkscape:connector-curvature="0"
       style="fill:#4575b4;fill-opacity:1;stroke:none" />
    <path
       id="path3039-11-2-4-6-0-6-6"
       d="m 85.862971,643.52372 5.11256,14.48561 h 15.337699 l -11.929309,9.37304 4.26046,14.48559 -12.78141,-8.52095 -12.78141,8.52095 4.26045,-14.48559 -11.92931,-9.37304 h 15.33771 z"
       inkscape:connector-curvature="0"
       style="fill:#4575b4;fill-opacity:1;stroke:none" />
    <path
       id="path3039-11-2-4-6-0-6-0"
       d="m 132.58253,655.89809 5.11256,14.48561 h 15.3377 l -11.92931,9.37304 4.26046,14.48559 -12.78141,-8.52095 -12.78141,8.52095 4.26045,-14.48559 -11.92931,-9.37304 h 15.33771 z"
       inkscape:connector-curvature="0"
       style="fill:#4575b4;fill-opacity:1;stroke:none" />
    <path
       id="path3039-11-2-4-6-0-6-66"
       d="m 180.81731,642.00849 5.11256,14.48561 h 15.3377 l -11.92931,9.37304 4.26046,14.48559 -12.78141,-8.52095 -12.78141,8.52095 4.26045,-14.48559 -11.92931,-9.37304 h 15.33771 z"
       inkscape:connector-curvature="0"
       style="fill:#4575b4;fill-opacity:1;stroke:none" />
    <path
       id="path3039-11-2-4-6-0-6-18"
       d="m 209.10158,610.18868 5.11256,14.48561 h 15.3377 l -11.92931,9.37304 4.26046,14.48559 -12.78141,-8.52095 -12.78141,8.52095 4.26045,-14.48559 -11.92931,-9.37304 h 15.33771 z"
       inkscape:connector-curvature="0"
       style="fill:#4575b4;fill-opacity:1;stroke:none" />
    <path
       id="path3039-6-1-4"
       d="m 605.58573,533.28418 2.81868,7.98626 h 8.45602 l -6.57691,5.16758 2.3489,7.98624 -7.04669,-4.69779 -7.0467,4.69779 2.3489,-7.98624 -6.57692,-5.16758 h 8.45604 z"
       inkscape:connector-curvature="0"
       style="fill:#4575b4;fill-opacity:1;stroke:none" />
    <path
       id="path3039-4-1-1-9"
       d="m 561.94685,622.80011 2.81867,7.98625 h 8.45603 l -6.57691,5.16758 2.3489,7.98625 -7.04669,-4.69779 -7.0467,4.69779 2.34889,-7.98625 -6.57691,-5.16758 h 8.45603 z"
       inkscape:connector-curvature="0"
       style="fill:#4575b4;fill-opacity:1;stroke:none" />
    <path
       id="path3039-9-8-3-6"
       d="m 387.00494,577.05108 2.81867,7.98627 h 8.45604 l -6.57692,5.16757 2.3489,7.98624 -7.04669,-4.69779 -7.0467,4.69779 2.34889,-7.98624 -6.5769,-5.16757 h 8.45603 z"
       inkscape:connector-curvature="0"
       style="fill:#4575b4;fill-opacity:1;stroke:none" />
    <path
       id="path3039-48-9-8-3"
       d="m 465.51774,534.47998 2.81868,7.98626 h 8.45602 l -6.57691,5.16758 2.3489,7.98625 -7.04669,-4.6978 -7.04669,4.6978 2.34889,-7.98625 -6.57691,-5.16758 h 8.45603 z"
       inkscape:connector-curvature="0"
       style="fill:#4575b4;fill-opacity:1;stroke:none" />
    <path
       id="path3039-8-27-7-7"
       d="m 559.63573,535.2111 2.81868,7.98625 h 8.45603 l -6.57691,5.16758 2.34889,7.98625 -7.04669,-4.6978 -7.0467,4.6978 2.3489,-7.98625 -6.57691,-5.16758 h 8.45602 z"
       inkscape:connector-curvature="0"
       style="fill:#4575b4;fill-opacity:1;stroke:none" />
    <path
       id="path3039-2-9-4-8"
       d="m 660.96062,577.68992 2.81868,7.98625 h 8.45603 l -6.57692,5.16759 2.3489,7.98624 -7.04669,-4.69779 -7.04669,4.69779 2.3489,-7.98624 -6.57692,-5.16759 h 8.45603 z"
       inkscape:connector-curvature="0"
       style="fill:#4575b4;fill-opacity:1;stroke:none" />
    <path
       id="path3039-45-5-2-8"
       d="m 612.87717,623.92201 2.81867,7.98625 h 8.45604 l -6.57692,5.16758 2.3489,7.98626 -7.04669,-4.6978 -7.0467,4.6978 2.3489,-7.98626 -6.57691,-5.16758 h 8.45603 z"
       inkscape:connector-curvature="0"
       style="fill:#4575b4;fill-opacity:1;stroke:none" />
    <path
       id="path3039-5-4-7-2"
       d="m 422.54498,534.22163 2.81868,7.98625 h 8.45604 l -6.57692,5.16758 2.3489,7.98625 -7.0467,-4.69779 -7.04669,4.69779 2.34889,-7.98625 -6.5769,-5.16758 h 8.45602 z"
       inkscape:connector-curvature="0"
       style="fill:#4575b4;fill-opacity:1;stroke:none" />
    <path
       id="path3039-1-3-7-9"
       d="m 479.03544,623.7136 2.81867,7.98624 h 8.45604 l -6.57692,5.16759 2.3489,7.98625 -7.04669,-4.6978 -7.0467,4.6978 2.3489,-7.98625 -6.57691,-5.16759 h 8.45603 z"
       inkscape:connector-curvature="0"
       style="fill:#4575b4;fill-opacity:1;stroke:none" />
    <path
       id="path3039-7-1-9-1"
       d="m 517.5998,621.00298 2.81868,7.98626 h 8.45603 l -6.57692,5.16758 2.3489,7.98625 -7.04669,-4.6978 -7.0467,4.6978 2.3489,-7.98625 -6.57692,-5.16758 h 8.45604 z"
       inkscape:connector-curvature="0"
       style="fill:#4575b4;fill-opacity:1;stroke:none" />
    <path
       id="path3039-11-2-3-3"
       d="m 516.61303,534.82899 2.81868,7.98625 h 8.45603 l -6.57691,5.16758 2.34889,7.98625 -7.04669,-4.6978 -7.04669,4.6978 2.34889,-7.98625 -6.57691,-5.16758 h 8.45603 z"
       inkscape:connector-curvature="0"
       style="fill:#4575b4;fill-opacity:1;stroke:none" />
    <text
       xml:space="preserve"
       style="font-size:64.75241089px;font-style:normal;font-variant:normal;font-weight:normal;font-stretch:normal;line-height:125%;letter-spacing:0px;word-spacing:0px;fill:#f11b1b;fill-opacity:1;stroke:none;font-family:Lato;-inkscape-font-specification:Lato"
       x="413.08371"
       y="610.79797"
       id="text3906-3-1-5"
       sodipodi:linespacing="125%"><tspan
         sodipodi:role="line"
         id="tspan3908-3-9-98"
         x="413.08371"
         y="610.79797"><tspan
   style="fill:#4575b4;fill-opacity:1"
   id="tspan4021-8-4">BR</tspan>E    IT</tspan></text>
    <path
       id="path3039-11-2-4-6-07"
       d="m 561.3149,564.49265 6.18585,17.52659 h 18.55756 l -14.43365,11.34073 5.15487,17.52657 -15.46463,-10.30976 -15.46463,10.30976 5.15486,-17.52657 -14.43365,-11.34073 h 18.55757 z"
       inkscape:connector-curvature="0"
       style="fill:#f11b1b;fill-opacity:1;stroke:none" />
    <path
       id="path3039-6-1-4-6"
       d="m 613.03151,681.47322 2.81868,7.98626 h 8.45602 l -6.57691,5.16758 2.3489,7.98624 -7.04669,-4.69779 -7.0467,4.69779 2.3489,-7.98624 -6.57692,-5.16758 h 8.45604 z"
       inkscape:connector-curvature="0"
       style="fill:#4575b4;fill-opacity:1;stroke:none" />
    <path
       id="path3039-4-1-1-9-3"
       d="m 571.17834,766.34628 2.81867,7.98625 h 8.45603 l -6.57691,5.16758 2.3489,7.98625 -7.04669,-4.69779 -7.0467,4.69779 2.34889,-7.98625 -6.57691,-5.16758 h 8.45603 z"
       inkscape:connector-curvature="0"
       style="fill:#4575b4;fill-opacity:1;stroke:none" />
    <path
       id="path3039-9-8-3-6-6"
       d="m 391.23644,722.38297 2.81867,7.98627 h 8.45604 l -6.57692,5.16757 2.3489,7.98624 -7.04669,-4.69779 -7.0467,4.69779 2.34889,-7.98624 -6.5769,-5.16757 h 8.45603 z"
       inkscape:connector-curvature="0"
       style="fill:#4575b4;fill-opacity:1;stroke:none" />
    <path
       id="path3039-48-9-8-3-1"
       d="m 482.96352,680.16901 2.81868,7.98626 h 8.45602 l -6.57691,5.16758 2.3489,7.98625 -7.04669,-4.6978 -7.04669,4.6978 2.34889,-7.98625 -6.57691,-5.16758 h 8.45603 z"
       inkscape:connector-curvature="0"
       style="fill:#4575b4;fill-opacity:1;stroke:none" />
    <path
       id="path3039-8-27-7-7-5"
       d="m 573.51009,680.90014 2.81868,7.98625 h 8.45603 l -6.57691,5.16758 2.34889,7.98625 -7.04669,-4.6978 -7.0467,4.6978 2.3489,-7.98625 -6.57691,-5.16758 h 8.45602 z"
       inkscape:connector-curvature="0"
       style="fill:#4575b4;fill-opacity:1;stroke:none" />
    <path
       id="path3039-2-9-4-8-4"
       d="m 665.19212,723.02181 2.81868,7.98625 h 8.45603 l -6.57692,5.16759 2.3489,7.98624 -7.04669,-4.69779 -7.04669,4.69779 2.3489,-7.98624 -6.57692,-5.16759 h 8.45603 z"
       inkscape:connector-curvature="0"
       style="fill:#f11b1b;fill-opacity:1;stroke:none" />
    <path
       id="path3039-45-5-2-8-2"
       d="m 611.03724,766.39675 2.81867,7.98625 h 8.45604 l -6.57692,5.16758 2.3489,7.98626 -7.04669,-4.6978 -7.0467,4.6978 2.3489,-7.98626 -6.57691,-5.16758 h 8.45603 z"
       inkscape:connector-curvature="0"
       style="fill:#4575b4;fill-opacity:1;stroke:none" />
    <path
       id="path3039-5-4-7-2-0"
       d="m 439.27648,679.91066 2.81868,7.98625 h 8.45604 l -6.57692,5.16758 2.3489,7.98625 -7.0467,-4.69779 -7.04669,4.69779 2.34889,-7.98625 -6.5769,-5.16758 h 8.45602 z"
       inkscape:connector-curvature="0"
       style="fill:#4575b4;fill-opacity:1;stroke:none" />
    <path
       id="path3039-1-3-7-9-9"
       d="m 489.33838,767.97406 2.81867,7.98624 h 8.45604 l -6.57692,5.16759 2.3489,7.98625 -7.04669,-4.6978 -7.0467,4.6978 2.3489,-7.98625 -6.57691,-5.16759 h 8.45603 z"
       inkscape:connector-curvature="0"
       style="fill:#4575b4;fill-opacity:1;stroke:none" />
    <path
       id="path3039-7-1-9-1-7"
       d="m 531.8313,767.04916 2.81868,7.98626 h 8.45603 l -6.57692,5.16758 2.3489,7.98625 -7.04669,-4.6978 -7.0467,4.6978 2.3489,-7.98625 -6.57692,-5.16758 h 8.45604 z"
       inkscape:connector-curvature="0"
       style="fill:#4575b4;fill-opacity:1;stroke:none" />
    <path
       id="path3039-11-2-3-3-3"
       d="m 529.7731,680.87516 2.81868,7.98625 h 8.45603 l -6.57691,5.16758 2.34889,7.98625 -7.04669,-4.6978 -7.04669,4.6978 2.34889,-7.98625 -6.57691,-5.16758 h 8.45603 z"
       inkscape:connector-curvature="0"
       style="fill:#4575b4;fill-opacity:1;stroke:none" />
    <text
       xml:space="preserve"
       style="font-size:64.75241089px;font-style:normal;font-variant:normal;font-weight:normal;font-stretch:normal;line-height:125%;letter-spacing:0px;word-spacing:0px;fill:#f11b1b;fill-opacity:1;stroke:none;font-family:Lato;-inkscape-font-specification:Lato"
       x="417.31522"
       y="756.12982"
       id="text3906-3-1-5-7"
       sodipodi:linespacing="125%"><tspan
         sodipodi:role="line"
         id="tspan3908-3-9-98-2"
         x="417.31522"
         y="756.12982"><tspan
   style="fill:#4575b4;fill-opacity:1"
   id="tspan4021-8-4-6">BR</tspan>EXIT</tspan></text>
    <path
       id="path3039-2-9-4-8-4-1"
       d="m 443.21429,768.22071 2.81868,7.98625 h 8.45603 l -6.57692,5.16759 2.3489,7.98624 -7.04669,-4.69779 -7.04669,4.69779 2.3489,-7.98624 -6.57692,-5.16759 h 8.45603 z"
       inkscape:connector-curvature="0"
       style="fill:#4575b4;fill-opacity:1;stroke:none" />
    <path
       id="path3039-6-1-4-6-6"
       d="m 586.35797,826.96867 2.81868,7.98626 h 8.45602 l -6.57691,5.16758 2.3489,7.98624 -7.04669,-4.69779 -7.0467,4.69779 2.3489,-7.98624 -6.57692,-5.16758 h 8.45604 z"
       inkscape:connector-curvature="0"
       style="fill:#4575b4;fill-opacity:1;stroke:none" />
    <path
       id="path3039-4-1-1-9-3-5"
       d="m 555.61648,914.87219 2.81867,7.98625 h 8.45603 l -6.57691,5.16758 2.3489,7.98625 -7.04669,-4.69779 -7.0467,4.69779 2.34889,-7.98625 -6.57691,-5.16758 h 8.45603 z"
       inkscape:connector-curvature="0"
       style="fill:#4575b4;fill-opacity:1;stroke:none" />
    <path
       id="path3039-9-8-3-6-6-7"
       d="m 616.8485,914.85051 2.81867,7.98627 h 8.45604 l -6.57692,5.16757 2.3489,7.98624 -7.04669,-4.69779 -7.0467,4.69779 2.34889,-7.98624 -6.5769,-5.16757 h 8.45603 z"
       inkscape:connector-curvature="0"
       style="fill:#4575b4;fill-opacity:1;stroke:none" />
    <path
       id="path3039-48-9-8-3-1-5"
       d="m 474.72526,826.42208 2.81868,7.98626 h 8.45602 l -6.57691,5.16758 2.3489,7.98625 -7.04669,-4.6978 -7.04669,4.6978 2.34889,-7.98625 -6.57691,-5.16758 h 8.45603 z"
       inkscape:connector-curvature="0"
       style="fill:#4575b4;fill-opacity:1;stroke:none" />
    <path
       id="path3039-8-27-7-7-5-4"
       d="m 555.92792,827.40574 2.81868,7.98625 h 8.45603 l -6.57691,5.16758 2.34889,7.98625 -7.04669,-4.6978 -7.0467,4.6978 2.3489,-7.98625 -6.57691,-5.16758 h 8.45602 z"
       inkscape:connector-curvature="0"
       style="fill:#4575b4;fill-opacity:1;stroke:none" />
    <path
       id="path3039-2-9-4-8-4-12"
       d="m 615.79015,827.10101 2.81868,7.98625 h 8.45603 l -6.57692,5.16759 2.3489,7.98624 -7.04669,-4.69779 -7.04669,4.69779 2.3489,-7.98624 -6.57692,-5.16759 h 8.45603 z"
       inkscape:connector-curvature="0"
       style="fill:#f11b1b;fill-opacity:1;stroke:none" />
    <path
       id="path3039-45-5-2-8-2-0"
       d="m 587.39416,914.67012 2.81867,7.98625 h 8.45604 l -6.57692,5.16758 2.3489,7.98626 -7.04669,-4.6978 -7.0467,4.6978 2.3489,-7.98626 -6.57691,-5.16758 h 8.45603 z"
       inkscape:connector-curvature="0"
       style="fill:#4575b4;fill-opacity:1;stroke:none" />
    <path
       id="path3039-5-4-7-2-0-0"
       d="m 433.05853,826.92134 2.81868,7.98625 h 8.45604 l -6.57692,5.16758 2.3489,7.98625 -7.0467,-4.69779 -7.04669,4.69779 2.34889,-7.98625 -6.5769,-5.16758 h 8.45602 z"
       inkscape:connector-curvature="0"
       style="fill:#4575b4;fill-opacity:1;stroke:none" />
    <path
       id="path3039-1-3-7-9-9-1"
       d="m 475.29174,914.98474 2.81867,7.98624 h 8.45604 l -6.57692,5.16759 2.3489,7.98625 -7.04669,-4.6978 -7.0467,4.6978 2.3489,-7.98625 -6.57691,-5.16759 h 8.45603 z"
       inkscape:connector-curvature="0"
       style="fill:#4575b4;fill-opacity:1;stroke:none" />
    <path
       id="path3039-7-1-9-1-7-4"
       d="m 517.27959,915.06999 2.81868,7.98626 h 8.45603 l -6.57692,5.16758 2.3489,7.98625 -7.04669,-4.6978 -7.0467,4.6978 2.3489,-7.98625 -6.57692,-5.16758 h 8.45604 z"
       inkscape:connector-curvature="0"
       style="fill:#4575b4;fill-opacity:1;stroke:none" />
    <path
       id="path3039-11-2-3-3-3-6"
       d="m 514.96885,827.12823 2.81868,7.98625 h 8.45603 l -6.57691,5.16758 2.34889,7.98625 -7.04669,-4.6978 -7.04669,4.6978 2.34889,-7.98625 -6.57691,-5.16758 h 8.45603 z"
       inkscape:connector-curvature="0"
       style="fill:#4575b4;fill-opacity:1;stroke:none" />
    <text
       xml:space="preserve"
       style="font-size:64.75241089px;font-style:normal;font-variant:normal;font-weight:normal;font-stretch:normal;line-height:125%;letter-spacing:0px;word-spacing:0px;fill:#f11b1b;fill-opacity:1;stroke:none;font-family:Lato;-inkscape-font-specification:Lato"
       x="413.37012"
       y="903.14044"
       id="text3906-3-1-5-7-0"
       sodipodi:linespacing="125%"><tspan
         sodipodi:role="line"
         id="tspan3908-3-9-98-2-7"
         x="413.37012"
         y="903.14044"><tspan
   style="fill:#4575b4;fill-opacity:1"
   id="tspan4021-8-4-6-1">BR</tspan>EXIT</tspan></text>
    <path
       id="path3039-2-9-4-8-4-1-7"
       d="m 433.71334,912.70601 2.81868,7.98625 h 8.45603 l -6.57692,5.16759 2.3489,7.98624 -7.04669,-4.69779 -7.04669,4.69779 2.3489,-7.98624 -6.57692,-5.16759 h 8.45603 z"
       inkscape:connector-curvature="0"
       style="fill:#4575b4;fill-opacity:1;stroke:none" />
    <path
       id="path3039-6-1-4-6-6-7"
       d="m 243.0969,734.01457 2.81868,7.98626 h 8.45602 l -6.57691,5.16758 2.3489,7.98624 -7.04669,-4.69779 -7.0467,4.69779 2.3489,-7.98624 -6.57692,-5.16758 h 8.45604 z"
       inkscape:connector-curvature="0"
       style="fill:#4575b4;fill-opacity:1;stroke:none" />
    <path
       id="path3039-4-1-1-9-3-5-7"
       d="m 183.24827,818.52523 2.81867,7.98625 h 8.45603 l -6.57691,5.16758 2.3489,7.98625 -7.04669,-4.69779 -7.0467,4.69779 2.34889,-7.98625 -6.57691,-5.16758 h 8.45603 z"
       inkscape:connector-curvature="0"
       style="fill:#4575b4;fill-opacity:1;stroke:none" />
    <path
       id="path3039-9-8-3-6-6-7-7"
       d="m 244.48029,818.50355 2.81867,7.98627 h 8.45604 l -6.57692,5.16757 2.3489,7.98624 -7.04669,-4.69779 -7.0467,4.69779 2.34889,-7.98624 -6.5769,-5.16757 h 8.45603 z"
       inkscape:connector-curvature="0"
       style="fill:#4575b4;fill-opacity:1;stroke:none" />
    <path
       id="path3039-48-9-8-3-1-5-3"
       d="m 102.71419,732.21798 2.81868,7.98626 h 8.45602 l -6.57691,5.16758 2.3489,7.98625 -7.04669,-4.6978 -7.046691,4.6978 2.34889,-7.98625 -6.57691,-5.16758 h 8.45603 z"
       inkscape:connector-curvature="0"
       style="fill:#4575b4;fill-opacity:1;stroke:none" />
    <path
       id="path3039-8-27-7-7-5-4-3"
       d="m 183.91685,733.20164 2.81868,7.98625 h 8.45603 l -6.57691,5.16758 2.34889,7.98625 -7.04669,-4.6978 -7.0467,4.6978 2.3489,-7.98625 -6.57691,-5.16758 h 8.45602 z"
       inkscape:connector-curvature="0"
       style="fill:#4575b4;fill-opacity:1;stroke:none" />
    <path
       id="path3039-2-9-4-8-4-12-5"
       d="m 213.85305,733.46326 2.81868,7.98625 h 8.45603 l -6.57692,5.16759 2.3489,7.98624 -7.04669,-4.69779 -7.04669,4.69779 2.3489,-7.98624 -6.57692,-5.16759 h 8.45603 z"
       inkscape:connector-curvature="0"
       style="fill:#f11b1b;fill-opacity:1;stroke:none" />
    <path
       id="path3039-45-5-2-8-2-0-9"
       d="m 215.02595,818.32316 2.81867,7.98625 h 8.45604 l -6.57692,5.16758 2.3489,7.98626 -7.04669,-4.6978 -7.0467,4.6978 2.3489,-7.98626 -6.57691,-5.16758 h 8.45603 z"
       inkscape:connector-curvature="0"
       style="fill:#4575b4;fill-opacity:1;stroke:none" />
    <path
       id="path3039-5-4-7-2-0-0-9"
       d="m 61.047459,732.71724 2.81868,7.98625 h 8.45604 l -6.57692,5.16758 2.3489,7.98625 -7.0467,-4.69779 -7.04669,4.69779 2.34889,-7.98625 -6.5769,-5.16758 h 8.45602 z"
       inkscape:connector-curvature="0"
       style="fill:#4575b4;fill-opacity:1;stroke:none" />
    <path
       id="path3039-1-3-7-9-9-1-8"
       d="m 102.92353,818.63778 2.81867,7.98624 h 8.45604 l -6.57692,5.16759 2.3489,7.98625 -7.04669,-4.6978 -7.046701,4.6978 2.3489,-7.98625 -6.57691,-5.16759 h 8.456031 z"
       inkscape:connector-curvature="0"
       style="fill:#4575b4;fill-opacity:1;stroke:none" />
    <path
       id="path3039-7-1-9-1-7-4-1"
       d="m 144.91138,818.72303 2.81868,7.98626 h 8.45603 l -6.57692,5.16758 2.3489,7.98625 -7.04669,-4.6978 -7.0467,4.6978 2.3489,-7.98625 -6.57692,-5.16758 h 8.45604 z"
       inkscape:connector-curvature="0"
       style="fill:#4575b4;fill-opacity:1;stroke:none" />
    <path
       id="path3039-11-2-3-3-3-6-8"
       d="m 142.95778,732.92413 2.81868,7.98625 h 8.45603 l -6.57691,5.16758 2.34889,7.98625 -7.04669,-4.6978 -7.04669,4.6978 2.34889,-7.98625 -6.57691,-5.16758 h 8.45603 z"
       inkscape:connector-curvature="0"
       style="fill:#4575b4;fill-opacity:1;stroke:none" />
    <text
       xml:space="preserve"
       style="font-size:64.75241089px;font-style:normal;font-variant:normal;font-weight:normal;font-stretch:normal;line-height:125%;letter-spacing:0px;word-spacing:0px;fill:#f11b1b;fill-opacity:1;stroke:none;font-family:Lato;-inkscape-font-specification:Lato"
       x="41.359039"
       y="808.93634"
       id="text3906-3-1-5-7-0-2"
       sodipodi:linespacing="125%"><tspan
         sodipodi:role="line"
         id="tspan3908-3-9-98-2-7-6"
         x="41.359039"
         y="808.93634"><tspan
   style="fill:#4575b4;fill-opacity:1"
   id="tspan4021-8-4-6-1-6">BR</tspan>EXIT</tspan></text>
    <path
       id="path3039-2-9-4-8-4-1-7-0"
       d="m 61.345126,816.35905 2.81868,7.98625 h 8.456033 l -6.576923,5.16759 2.348903,7.98624 -7.046693,-4.69779 -7.04669,4.69779 2.3489,-7.98624 -6.57692,-5.16759 h 8.45603 z"
       inkscape:connector-curvature="0"
       style="fill:#4575b4;fill-opacity:1;stroke:none" />
    <path
       id="path3039-6-1-4-6-6-7-3"
       d="m 241.43217,885.78849 2.81868,7.98626 h 8.45602 l -6.57691,5.16758 2.3489,7.98624 -7.04669,-4.69779 -7.0467,4.69779 2.3489,-7.98624 -6.57692,-5.16758 h 8.45604 z"
       inkscape:connector-curvature="0"
       style="fill:#4575b4;fill-opacity:1;stroke:none" />
    <path
       id="path3039-48-9-8-3-1-5-3-1"
       d="m 98.230371,885.40252 2.818689,7.98626 h 8.45602 l -6.57691,5.16758 2.3489,7.98625 -7.046699,-4.6978 -7.046686,4.6978 2.34889,-7.98625 -6.57691,-5.16758 h 8.456026 z"
       inkscape:connector-curvature="0"
       style="fill:#4575b4;fill-opacity:1;stroke:none" />
    <path
       id="path3039-8-27-7-7-5-4-3-2"
       d="m 170.06376,885.62858 2.81868,7.98625 h 8.45603 l -6.57691,5.16758 2.34889,7.98625 -7.04669,-4.6978 -7.0467,4.6978 2.3489,-7.98625 -6.57691,-5.16758 h 8.45602 z"
       inkscape:connector-curvature="0"
       style="fill:#4575b4;fill-opacity:1;stroke:none" />
    <path
       id="path3039-2-9-4-8-4-12-5-5"
       d="m 206.45763,885.74226 2.81868,7.98625 h 8.45603 l -6.57692,5.16759 2.3489,7.98624 -7.04669,-4.69779 -7.04669,4.69779 2.3489,-7.98624 -6.57692,-5.16759 h 8.45603 z"
       inkscape:connector-curvature="0"
       style="fill:#f11b1b;fill-opacity:1;stroke:none" />
    <path
       id="path3039-5-4-7-2-0-0-9-9"
       d="m 61.048057,885.50132 2.81868,7.98625 h 8.456037 l -6.576917,5.16758 2.3489,7.98625 -7.0467,-4.69779 -7.04669,4.69779 2.34889,-7.98625 -6.5769,-5.16758 h 8.45602 z"
       inkscape:connector-curvature="0"
       style="fill:#4575b4;fill-opacity:1;stroke:none" />
    <path
       id="path3039-11-2-3-3-3-6-8-8"
       d="m 134.35938,885.42503 2.81868,7.98625 h 8.45604 l -6.57691,5.16758 2.34889,7.98625 -7.0467,-4.6978 -7.04669,4.6978 2.34889,-7.98625 -6.57691,-5.16758 h 8.45603 z"
       inkscape:connector-curvature="0"
       style="fill:#4575b4;fill-opacity:1;stroke:none" />
    <text
       xml:space="preserve"
       style="font-size:64.75241089px;font-style:normal;font-variant:normal;font-weight:normal;font-stretch:normal;line-height:125%;letter-spacing:0px;word-spacing:0px;fill:#f11b1b;fill-opacity:1;stroke:none;font-family:Lato;-inkscape-font-specification:Lato"
       x="40.798538"
       y="960.10059"
       id="text3906-3-1-5-7-0-2-3"
       sodipodi:linespacing="125%"><tspan
         sodipodi:role="line"
         id="tspan3908-3-9-98-2-7-6-5"
         x="40.798538"
         y="960.10059"><tspan
   style="fill:#4575b4;fill-opacity:1"
   id="tspan4021-8-4-6-1-6-1">BR</tspan>EXIT</tspan></text>
    <path
       id="path3039-6-1-4-6-6-7-3-0"
       d="m 242.33491,967.69941 2.81868,7.98626 h 8.45602 l -6.57691,5.16758 2.3489,7.98626 -7.04669,-4.6978 -7.0467,4.6978 2.3489,-7.98626 -6.57692,-5.16758 h 8.45604 z"
       inkscape:connector-curvature="0"
       style="fill:#4575b4;fill-opacity:1;stroke:none" />
    <path
       id="path3039-48-9-8-3-1-5-3-1-1"
       d="m 99.13312,967.31344 2.81869,7.98626 h 8.45602 l -6.57691,5.16758 2.3489,7.98623 -7.0467,-4.6978 -7.04669,4.6978 2.34889,-7.98623 -6.57691,-5.16758 h 8.45603 z"
       inkscape:connector-curvature="0"
       style="fill:#4575b4;fill-opacity:1;stroke:none" />
    <path
       id="path3039-8-27-7-7-5-4-3-2-6"
       d="m 170.9665,967.5395 2.81868,7.98625 h 8.45603 l -6.57691,5.16758 2.34889,7.98628 -7.04669,-4.6978 -7.0467,4.6978 2.3489,-7.98628 -6.57691,-5.16758 h 8.45602 z"
       inkscape:connector-curvature="0"
       style="fill:#4575b4;fill-opacity:1;stroke:none" />
    <path
       id="path3039-5-4-7-2-0-0-9-9-0"
       d="m 61.9508,967.41224 2.81868,7.98625 h 8.45604 l -6.57692,5.16758 2.3489,7.98624 -7.0467,-4.6978 -7.04669,4.6978 2.34889,-7.98624 -6.5769,-5.16758 h 8.45602 z"
       inkscape:connector-curvature="0"
       style="fill:#4575b4;fill-opacity:1;stroke:none" />
    <path
       id="path3039-11-2-3-3-3-6-8-8-6"
       d="m 135.26213,967.33595 2.81868,7.98625 h 8.45604 l -6.57691,5.16758 2.34889,7.98623 -7.0467,-4.6978 -7.04669,4.6978 2.34889,-7.98623 -6.57691,-5.16758 h 8.45603 z"
       inkscape:connector-curvature="0"
       style="fill:#4575b4;fill-opacity:1;stroke:none" />
    <path
       id="path3039-6-1-4-6-6-7-3-0-1"
       d="m 207.14287,967.50642 2.81868,7.98626 h 8.45602 l -6.57691,5.16758 2.3489,7.98626 -7.04669,-4.6978 -7.0467,4.6978 2.3489,-7.98626 -6.57692,-5.16758 h 8.45604 z"
       inkscape:connector-curvature="0"
       style="fill:#4575b4;fill-opacity:1;stroke:none" />
    <path
       id="path3039-6-1-4-6-6-7-3-8"
       d="m -65.654198,887.89257 2.81868,7.98626 h 8.45602 l -6.57691,5.16758 2.3489,7.98624 -7.04669,-4.69779 -7.0467,4.69779 2.3489,-7.98624 -6.57692,-5.16758 h 8.45604 z"
       inkscape:connector-curvature="0"
       style="fill:#4575b4;fill-opacity:1;stroke:none"
       inkscape:export-filename="D:\Users\Matija\Dropbox\brexit2016\logo\brexit-logo.png"
       inkscape:export-xdpi="261.76715"
       inkscape:export-ydpi="261.76715" />
    <path
       id="path3039-48-9-8-3-1-5-3-1-9"
       d="m -208.856,887.5066 2.81868,7.98626 h 8.45602 l -6.57691,5.16758 2.3489,7.98625 -7.04669,-4.6978 -7.04669,4.6978 2.34889,-7.98625 -6.57691,-5.16758 h 8.45603 z"
       inkscape:connector-curvature="0"
       style="fill:#4575b4;fill-opacity:1;stroke:none"
       inkscape:export-filename="D:\Users\Matija\Dropbox\brexit2016\logo\brexit-logo.png"
       inkscape:export-xdpi="261.76715"
       inkscape:export-ydpi="261.76715" />
    <path
       id="path3039-8-27-7-7-5-4-3-2-8"
       d="m -137.02261,887.73266 2.81868,7.98625 h 8.45603 l -6.57691,5.16758 2.34889,7.98625 -7.04669,-4.6978 -7.0467,4.6978 2.3489,-7.98625 -6.57691,-5.16758 h 8.45602 z"
       inkscape:connector-curvature="0"
       style="fill:#4575b4;fill-opacity:1;stroke:none"
       inkscape:export-filename="D:\Users\Matija\Dropbox\brexit2016\logo\brexit-logo.png"
       inkscape:export-xdpi="261.76715"
       inkscape:export-ydpi="261.76715" />
    <path
       id="path3039-2-9-4-8-4-12-5-5-4"
       d="m -100.62874,887.84634 2.818682,7.98625 h 8.45603 l -6.57692,5.16759 2.3489,7.98624 -7.046692,-4.69779 -7.04669,4.69779 2.3489,-7.98624 -6.57692,-5.16759 h 8.45603 z"
       inkscape:connector-curvature="0"
       style="fill:#f11b1b;fill-opacity:1;stroke:none"
       inkscape:export-filename="D:\Users\Matija\Dropbox\brexit2016\logo\brexit-logo.png"
       inkscape:export-xdpi="261.76715"
       inkscape:export-ydpi="261.76715" />
    <path
       id="path3039-5-4-7-2-0-0-9-9-1"
       d="m -246.03832,887.6054 2.81868,7.98625 h 8.45604 l -6.57692,5.16758 2.3489,7.98625 -7.0467,-4.69779 -7.04669,4.69779 2.34889,-7.98625 -6.5769,-5.16758 h 8.45602 z"
       inkscape:connector-curvature="0"
       style="fill:#4575b4;fill-opacity:1;stroke:none"
       inkscape:export-filename="D:\Users\Matija\Dropbox\brexit2016\logo\brexit-logo.png"
       inkscape:export-xdpi="261.76715"
       inkscape:export-ydpi="261.76715" />
    <path
       id="path3039-11-2-3-3-3-6-8-8-4"
       d="m -172.727,887.52911 2.81868,7.98625 h 8.45604 l -6.57691,5.16758 2.34889,7.98625 -7.0467,-4.6978 -7.04669,4.6978 2.34889,-7.98625 -6.57691,-5.16758 h 8.45603 z"
       inkscape:connector-curvature="0"
       style="fill:#4575b4;fill-opacity:1;stroke:none"
       inkscape:export-filename="D:\Users\Matija\Dropbox\brexit2016\logo\brexit-logo.png"
       inkscape:export-xdpi="261.76715"
       inkscape:export-ydpi="261.76715" />
    <text
       xml:space="preserve"
       style="font-size:64.75241089px;font-style:normal;font-variant:normal;font-weight:normal;font-stretch:normal;line-height:125%;letter-spacing:0px;word-spacing:0px;fill:#f11b1b;fill-opacity:1;stroke:none;font-family:Lato;-inkscape-font-specification:Lato"
       x="-266.28781"
       y="962.20465"
       id="text3906-3-1-5-7-0-2-3-3"
       sodipodi:linespacing="125%"
       inkscape:export-filename="D:\Users\Matija\Dropbox\brexit2016\logo\brexit-logo.png"
       inkscape:export-xdpi="261.76715"
       inkscape:export-ydpi="261.76715"><tspan
         sodipodi:role="line"
         id="tspan3908-3-9-98-2-7-6-5-9"
         x="-266.28781"
         y="962.20465"><tspan
   style="fill:#4575b4;fill-opacity:1"
   id="tspan4021-8-4-6-1-6-1-8">BR</tspan>EXIT</tspan></text>
    <path
       id="path3039-6-1-4-6-6-7-3-0-8"
       d="m -64.751458,969.80349 2.81868,7.98626 h 8.45602 l -6.57691,5.16758 2.3489,7.98626 -7.04669,-4.6978 -7.0467,4.6978 2.3489,-7.98626 -6.57692,-5.16758 h 8.45604 z"
       inkscape:connector-curvature="0"
       style="fill:#4575b4;fill-opacity:1;stroke:none"
       inkscape:export-filename="D:\Users\Matija\Dropbox\brexit2016\logo\brexit-logo.png"
       inkscape:export-xdpi="261.76715"
       inkscape:export-ydpi="261.76715" />
    <path
       id="path3039-48-9-8-3-1-5-3-1-1-0"
       d="m -207.95326,969.41752 2.81869,7.98626 h 8.45602 l -6.57691,5.16758 2.3489,7.98623 -7.0467,-4.6978 -7.04669,4.6978 2.34889,-7.98623 -6.57691,-5.16758 h 8.45603 z"
       inkscape:connector-curvature="0"
       style="fill:#4575b4;fill-opacity:1;stroke:none"
       inkscape:export-filename="D:\Users\Matija\Dropbox\brexit2016\logo\brexit-logo.png"
       inkscape:export-xdpi="261.76715"
       inkscape:export-ydpi="261.76715" />
    <path
       id="path3039-8-27-7-7-5-4-3-2-6-8"
       d="m -136.11987,969.64358 2.81868,7.98625 h 8.45603 l -6.57691,5.16758 2.34889,7.98628 -7.04669,-4.6978 -7.0467,4.6978 2.3489,-7.98628 -6.57691,-5.16758 h 8.45602 z"
       inkscape:connector-curvature="0"
       style="fill:#4575b4;fill-opacity:1;stroke:none"
       inkscape:export-filename="D:\Users\Matija\Dropbox\brexit2016\logo\brexit-logo.png"
       inkscape:export-xdpi="261.76715"
       inkscape:export-ydpi="261.76715" />
    <path
       id="path3039-5-4-7-2-0-0-9-9-0-7"
       d="m -245.13558,969.51632 2.81868,7.98625 h 8.45604 l -6.57692,5.16758 2.3489,7.98624 -7.0467,-4.6978 -7.04669,4.6978 2.34889,-7.98624 -6.5769,-5.16758 h 8.45602 z"
       inkscape:connector-curvature="0"
       style="fill:#4575b4;fill-opacity:1;stroke:none"
       inkscape:export-filename="D:\Users\Matija\Dropbox\brexit2016\logo\brexit-logo.png"
       inkscape:export-xdpi="261.76715"
       inkscape:export-ydpi="261.76715" />
    <path
       id="path3039-11-2-3-3-3-6-8-8-6-7"
       d="m -171.82425,969.44003 2.81868,7.98625 h 8.45605 l -6.57692,5.16758 2.34889,7.98623 -7.0467,-4.6978 -7.04669,4.6978 2.34889,-7.98623 -6.57691,-5.16758 h 8.45603 z"
       inkscape:connector-curvature="0"
       style="fill:#4575b4;fill-opacity:1;stroke:none"
       inkscape:export-filename="D:\Users\Matija\Dropbox\brexit2016\logo\brexit-logo.png"
       inkscape:export-xdpi="261.76715"
       inkscape:export-ydpi="261.76715" />
    <path
       id="path3039-6-1-4-6-6-7-3-0-1-8"
       d="m -99.943498,969.6105 2.81868,7.98626 h 8.45602 l -6.57691,5.16758 2.3489,7.98626 -7.04669,-4.6978 -7.046702,4.6978 2.3489,-7.98626 -6.57692,-5.16758 h 8.45604 z"
       inkscape:connector-curvature="0"
       style="fill:#4575b4;fill-opacity:1;stroke:none"
       inkscape:export-filename="D:\Users\Matija\Dropbox\brexit2016\logo\brexit-logo.png"
       inkscape:export-xdpi="261.76715"
       inkscape:export-ydpi="261.76715" />
    <text
       xml:space="preserve"
       style="font-size:9.42560577px;font-style:normal;font-variant:normal;font-weight:normal;font-stretch:normal;line-height:125%;letter-spacing:0px;word-spacing:0px;fill:#000000;fill-opacity:1;stroke:none;font-family:Lato;-inkscape-font-specification:Lato"
       x="-102.40977"
       y="1016.1898"
       id="text4699"
       sodipodi:linespacing="125%"><tspan
         sodipodi:role="line"
         id="tspan4701"
         x="-102.40977"
         y="1016.1898">export copy</tspan></text>
    <path
       id="path3039-6-1-4-6-6-7-3-6"
       d="m 225.26973,1063.6591 2.81868,7.9863 h 8.45602 l -6.57691,5.1676 2.3489,7.9862 -7.04669,-4.6978 -7.0467,4.6978 2.3489,-7.9862 -6.57692,-5.1676 h 8.45604 z"
       inkscape:connector-curvature="0"
       style="fill:#4575b4;fill-opacity:1;stroke:none" />
    <path
       id="path3039-48-9-8-3-1-5-3-1-16"
       d="m 82.067932,1063.2731 2.81869,7.9863 h 8.45602 l -6.57691,5.1676 2.3489,7.9862 -7.0467,-4.6978 -7.046684,4.6978 2.34889,-7.9862 -6.57691,-5.1676 h 8.456026 z"
       inkscape:connector-curvature="0"
       style="fill:#4575b4;fill-opacity:1;stroke:none" />
    <path
       id="path3039-8-27-7-7-5-4-3-2-3"
       d="m 153.90132,1063.4992 2.81868,7.9863 h 8.45603 l -6.57691,5.1675 2.34889,7.9863 -7.04669,-4.6978 -7.0467,4.6978 2.3489,-7.9863 -6.57691,-5.1675 h 8.45602 z"
       inkscape:connector-curvature="0"
       style="fill:#4575b4;fill-opacity:1;stroke:none" />
    <path
       id="path3039-2-9-4-8-4-12-5-5-3"
       d="m 190.29519,1063.6129 2.81868,7.9862 h 8.45603 l -6.57692,5.1676 2.3489,7.9863 -7.04669,-4.6978 -7.04669,4.6978 2.3489,-7.9863 -6.57692,-5.1676 h 8.45603 z"
       inkscape:connector-curvature="0"
       style="fill:#f11b1b;fill-opacity:1;stroke:none" />
    <path
       id="path3039-5-4-7-2-0-0-9-9-5"
       d="m 44.88562,1063.3719 2.81868,7.9863 h 8.456037 l -6.576917,5.1676 2.3489,7.9862 -7.0467,-4.6978 -7.04669,4.6978 2.34889,-7.9862 -6.5769,-5.1676 h 8.45602 z"
       inkscape:connector-curvature="0"
       style="fill:#4575b4;fill-opacity:1;stroke:none" />
    <path
       id="path3039-11-2-3-3-3-6-8-8-5"
       d="m 118.19694,1063.2957 2.81868,7.9862 h 8.45604 l -6.57691,5.1676 2.34889,7.9862 -7.0467,-4.6978 -7.04669,4.6978 2.34889,-7.9862 -6.57691,-5.1676 h 8.45603 z"
       inkscape:connector-curvature="0"
       style="fill:#4575b4;fill-opacity:1;stroke:none" />
    <text
       xml:space="preserve"
       style="font-size:64.75241089px;font-style:normal;font-variant:normal;font-weight:normal;font-stretch:normal;line-height:125%;letter-spacing:0px;word-spacing:0px;fill:#f11b1b;fill-opacity:1;stroke:none;font-family:Lato;-inkscape-font-specification:Lato"
       x="24.636101"
       y="1137.9712"
       id="text3906-3-1-5-7-0-2-3-32"
       sodipodi:linespacing="125%"><tspan
         sodipodi:role="line"
         id="tspan3908-3-9-98-2-7-6-5-8"
         x="24.636101"
         y="1137.9712"><tspan
   style="fill:#4575b4;fill-opacity:1"
   id="tspan4021-8-4-6-1-6-1-2">BR</tspan>EXIT</tspan></text>
    <path
       id="path3039-6-1-4-6-6-7-3-0-5"
       d="m 224.15217,1173.3492 2.81868,7.9863 h 8.45602 l -6.57691,5.1676 2.3489,7.9862 -7.04669,-4.6978 -7.0467,4.6978 2.3489,-7.9862 -6.57692,-5.1676 h 8.45604 z"
       inkscape:connector-curvature="0"
       style="fill:#4575b4;fill-opacity:1;stroke:none" />
    <path
       id="path3039-48-9-8-3-1-5-3-1-1-3"
       d="m 80.950376,1172.9633 2.81869,7.9862 h 8.45602 l -6.57691,5.1676 2.3489,7.9862 -7.0467,-4.6978 -7.046689,4.6978 2.34889,-7.9862 -6.57691,-5.1676 h 8.45603 z"
       inkscape:connector-curvature="0"
       style="fill:#4575b4;fill-opacity:1;stroke:none" />
    <path
       id="path3039-8-27-7-7-5-4-3-2-6-6"
       d="m 152.78376,1173.1893 2.81868,7.9863 h 8.45603 l -6.57691,5.1676 2.34889,7.9862 -7.04669,-4.6978 -7.0467,4.6978 2.3489,-7.9862 -6.57691,-5.1676 h 8.45602 z"
       inkscape:connector-curvature="0"
       style="fill:#4575b4;fill-opacity:1;stroke:none" />
    <path
       id="path3039-5-4-7-2-0-0-9-9-0-1"
       d="m 43.768057,1173.0621 2.81868,7.9862 h 8.45604 l -6.57692,5.1676 2.3489,7.9862 -7.0467,-4.6978 -7.04669,4.6978 2.34889,-7.9862 -6.5769,-5.1676 h 8.45602 z"
       inkscape:connector-curvature="0"
       style="fill:#4575b4;fill-opacity:1;stroke:none" />
    <path
       id="path3039-11-2-3-3-3-6-8-8-6-8"
       d="m 117.07939,1172.9858 2.81868,7.9862 h 8.45604 l -6.57691,5.1676 2.34889,7.9862 -7.0467,-4.6978 -7.04669,4.6978 2.34889,-7.9862 -6.57691,-5.1676 h 8.45603 z"
       inkscape:connector-curvature="0"
       style="fill:#4575b4;fill-opacity:1;stroke:none" />
    <path
       id="path3039-6-1-4-6-6-7-3-0-1-6"
       d="m 188.96013,1173.1562 2.81868,7.9863 h 8.45602 l -6.57691,5.1676 2.3489,7.9862 -7.04669,-4.6978 -7.0467,4.6978 2.3489,-7.9862 -6.57692,-5.1676 h 8.45604 z"
       inkscape:connector-curvature="0"
       style="fill:#4575b4;fill-opacity:1;stroke:none" />
    <text
       xml:space="preserve"
       style="font-size:26.12931442px;font-style:normal;font-variant:normal;font-weight:normal;font-stretch:normal;line-height:125%;letter-spacing:0px;word-spacing:0px;fill:#f11b1b;fill-opacity:1;stroke:none;font-family:Lato;-inkscape-font-specification:Lato"
       x="27.858082"
       y="1165.4672"
       id="text3906-3-1-5-7-0-2-3-32-2"
       sodipodi:linespacing="125%"><tspan
         sodipodi:role="line"
         id="tspan3908-3-9-98-2-7-6-5-8-1"
         x="27.858082"
         y="1165.4672"
         style="fill:#4575b4;fill-opacity:1">ORACLUM.CO.UK</tspan></text>
    <path
       id="path3039-6-1-4-6-6-7-3-6-6"
       d="m 488.49406,1062.4972 2.81868,7.9863 h 8.45602 l -6.57691,5.1676 2.3489,7.9862 -7.04669,-4.6978 -7.0467,4.6978 2.3489,-7.9862 -6.57692,-5.1676 h 8.45604 z"
       inkscape:connector-curvature="0"
       style="fill:#4575b4;fill-opacity:1;stroke:none" />
    <path
       id="path3039-48-9-8-3-1-5-3-1-16-2"
       d="m 345.29226,1062.1112 2.81869,7.9863 h 8.45602 l -6.57691,5.1676 2.3489,7.9862 -7.0467,-4.6978 -7.04668,4.6978 2.34889,-7.9862 -6.57691,-5.1676 h 8.45602 z"
       inkscape:connector-curvature="0"
       style="fill:#4575b4;fill-opacity:1;stroke:none" />
    <path
       id="path3039-8-27-7-7-5-4-3-2-3-9"
       d="m 417.12565,1062.3373 2.81868,7.9863 h 8.45603 l -6.57691,5.1675 2.34889,7.9863 -7.04669,-4.6978 -7.0467,4.6978 2.3489,-7.9863 -6.57691,-5.1675 h 8.45602 z"
       inkscape:connector-curvature="0"
       style="fill:#4575b4;fill-opacity:1;stroke:none" />
    <path
       id="path3039-2-9-4-8-4-12-5-5-3-1"
       d="m 453.51952,1062.451 2.81868,7.9862 h 8.45603 l -6.57692,5.1676 2.3489,7.9863 -7.04669,-4.6978 -7.04669,4.6978 2.3489,-7.9863 -6.57692,-5.1676 h 8.45603 z"
       inkscape:connector-curvature="0"
       style="fill:#f11b1b;fill-opacity:1;stroke:none" />
    <path
       id="path3039-5-4-7-2-0-0-9-9-5-5"
       d="m 308.10995,1062.21 2.81868,7.9863 h 8.45604 l -6.57692,5.1676 2.3489,7.9862 -7.0467,-4.6978 -7.04669,4.6978 2.34889,-7.9862 -6.5769,-5.1676 h 8.45602 z"
       inkscape:connector-curvature="0"
       style="fill:#4575b4;fill-opacity:1;stroke:none" />
    <path
       id="path3039-11-2-3-3-3-6-8-8-5-0"
       d="m 381.42127,1062.1338 2.81868,7.9862 h 8.45604 l -6.57691,5.1676 2.34889,7.9862 -7.0467,-4.6978 -7.04669,4.6978 2.34889,-7.9862 -6.57691,-5.1676 h 8.45603 z"
       inkscape:connector-curvature="0"
       style="fill:#4575b4;fill-opacity:1;stroke:none" />
    <text
       xml:space="preserve"
       style="font-size:64.75241089px;font-style:normal;font-variant:normal;font-weight:normal;font-stretch:normal;line-height:125%;letter-spacing:0px;word-spacing:0px;fill:#f11b1b;fill-opacity:1;stroke:none;font-family:Lato;-inkscape-font-specification:Lato"
       x="287.86041"
       y="1136.8092"
       id="text3906-3-1-5-7-0-2-3-32-3"
       sodipodi:linespacing="125%"><tspan
         sodipodi:role="line"
         id="tspan3908-3-9-98-2-7-6-5-8-6"
         x="287.86041"
         y="1136.8092"><tspan
   style="fill:#4575b4;fill-opacity:1"
   id="tspan4021-8-4-6-1-6-1-2-4">BR</tspan>EXIT</tspan></text>
    <path
       id="path3039-6-1-4-6-6-7-3-0-5-9"
       d="m 487.3765,1174.6873 2.81868,7.9863 h 8.45602 l -6.57691,5.1676 2.3489,7.9862 -7.04669,-4.6978 -7.0467,4.6978 2.3489,-7.9862 -6.57692,-5.1676 h 8.45604 z"
       inkscape:connector-curvature="0"
       style="fill:#4575b4;fill-opacity:1;stroke:none" />
    <path
       id="path3039-48-9-8-3-1-5-3-1-1-3-2"
       d="m 344.1747,1174.3014 2.81869,7.9862 h 8.45602 l -6.57691,5.1676 2.3489,7.9862 -7.0467,-4.6978 -7.04668,4.6978 2.34889,-7.9862 -6.57691,-5.1676 h 8.45603 z"
       inkscape:connector-curvature="0"
       style="fill:#4575b4;fill-opacity:1;stroke:none" />
    <path
       id="path3039-8-27-7-7-5-4-3-2-6-6-9"
       d="m 416.00809,1174.5274 2.81868,7.9863 h 8.45603 l -6.57691,5.1676 2.34889,7.9862 -7.04669,-4.6978 -7.0467,4.6978 2.3489,-7.9862 -6.57691,-5.1676 h 8.45602 z"
       inkscape:connector-curvature="0"
       style="fill:#4575b4;fill-opacity:1;stroke:none" />
    <path
       id="path3039-5-4-7-2-0-0-9-9-0-1-3"
       d="m 306.99239,1174.4002 2.81868,7.9862 h 8.45604 l -6.57692,5.1676 2.3489,7.9862 -7.0467,-4.6978 -7.04669,4.6978 2.34889,-7.9862 -6.5769,-5.1676 h 8.45602 z"
       inkscape:connector-curvature="0"
       style="fill:#4575b4;fill-opacity:1;stroke:none" />
    <path
       id="path3039-11-2-3-3-3-6-8-8-6-8-4"
       d="m 380.30372,1174.3239 2.81868,7.9862 h 8.45604 l -6.57691,5.1676 2.34889,7.9862 -7.0467,-4.6978 -7.04669,4.6978 2.34889,-7.9862 -6.57691,-5.1676 h 8.45603 z"
       inkscape:connector-curvature="0"
       style="fill:#4575b4;fill-opacity:1;stroke:none" />
    <path
       id="path3039-6-1-4-6-6-7-3-0-1-6-4"
       d="m 452.18446,1174.4943 2.81868,7.9863 h 8.45602 l -6.57691,5.1676 2.3489,7.9862 -7.04669,-4.6978 -7.0467,4.6978 2.3489,-7.9862 -6.57692,-5.1676 h 8.45604 z"
       inkscape:connector-curvature="0"
       style="fill:#4575b4;fill-opacity:1;stroke:none" />
    <text
       xml:space="preserve"
       style="font-size:35.30278015px;font-style:normal;font-variant:normal;font-weight:normal;font-stretch:normal;line-height:125%;letter-spacing:0px;word-spacing:0px;fill:#f11b1b;fill-opacity:1;stroke:none;font-family:Lato;-inkscape-font-specification:Lato"
       x="291.10919"
       y="1167.8033"
       id="text3906-3-1-5-7-0-2-3-32-2-0"
       sodipodi:linespacing="125%"><tspan
         sodipodi:role="line"
         id="tspan3908-3-9-98-2-7-6-5-8-1-5"
         x="291.10919"
         y="1167.8033"
         style="fill:#4575b4;fill-opacity:1">oraclum.co.uk</tspan></text>
    <path
       id="path3039-6-9"
       d="m 869.98873,11.969941 2.81868,7.98626 h 8.45602 l -6.57691,5.16758 2.3489,7.98624 -7.04669,-4.69779 -7.0467,4.69779 2.3489,-7.98624 -6.57692,-5.16758 h 8.45604 z"
       inkscape:connector-curvature="0"
       style="fill:#4575b4;fill-opacity:1;stroke:none" />
    <path
       id="path3039-4-1-6"
       d="m 873.97983,189.19508 2.81867,7.98625 h 8.45603 l -6.57691,5.16758 2.3489,7.98625 -7.04669,-4.69779 -7.0467,4.69779 2.34889,-7.98625 -6.57691,-5.16758 h 8.45603 z"
       inkscape:connector-curvature="0"
       style="fill:#4575b4;fill-opacity:1;stroke:none" />
    <path
       id="path3039-9-8-34"
       d="m 782.07889,102.44333 2.81867,7.98626 h 8.45604 l -6.57692,5.16758 2.3489,7.98624 -7.04669,-4.69779 -7.0467,4.69779 2.34889,-7.98624 -6.5769,-5.16758 h 8.45603 z"
       inkscape:connector-curvature="0"
       style="fill:#4575b4;fill-opacity:1;stroke:none" />
    <path
       id="path3039-48-9-2"
       d="m 823.17835,26.589234 2.81868,7.98626 h 8.45602 l -6.57691,5.16758 2.3489,7.98625 -7.04669,-4.6978 -7.04669,4.6978 2.34889,-7.98625 -6.57691,-5.16758 h 8.45603 z"
       inkscape:connector-curvature="0"
       style="fill:#4575b4;fill-opacity:1;stroke:none" />
    <path
       id="path3039-8-27-8"
       d="m 914.64841,23.835583 2.81868,7.98625 h 8.45603 l -6.57691,5.16758 2.34889,7.98625 -7.04669,-4.6978 -7.0467,4.6978 2.3489,-7.98625 -6.57691,-5.16758 h 8.45602 z"
       inkscape:connector-curvature="0"
       style="fill:#4575b4;fill-opacity:1;stroke:none" />
    <path
       id="path3039-2-9-8"
       d="m 948.68251,144.02362 2.81868,7.98625 h 8.45603 l -6.57692,5.16759 2.3489,7.98624 -7.04669,-4.69779 -7.04669,4.69779 2.3489,-7.98624 -6.57692,-5.16759 h 8.45603 z"
       inkscape:connector-curvature="0"
       style="fill:#4575b4;fill-opacity:1;stroke:none" />
    <path
       id="path3039-45-5-7"
       d="m 826.4,177.6511 2.81867,7.98625 h 8.45604 l -6.57692,5.16758 2.3489,7.98626 -7.04669,-4.6978 -7.0467,4.6978 2.3489,-7.98626 -6.57691,-5.16758 h 8.45603 z"
       inkscape:connector-curvature="0"
       style="fill:#4575b4;fill-opacity:1;stroke:none" />
    <path
       id="path3039-5-4-5"
       d="m 794.84845,58.682949 2.81868,7.98625 h 8.45604 l -6.57692,5.16758 2.3489,7.98625 -7.0467,-4.69779 -7.04669,4.69779 2.34889,-7.98625 -6.5769,-5.16758 h 8.45602 z"
       inkscape:connector-curvature="0"
       style="fill:#4575b4;fill-opacity:1;stroke:none" />
    <path
       id="path3039-1-3-8"
       d="m 794.61447,147.14682 2.81867,7.98624 h 8.45604 l -6.57692,5.16759 2.3489,7.98625 -7.04669,-4.6978 -7.0467,4.6978 2.3489,-7.98625 -6.57691,-5.16759 h 8.45603 z"
       inkscape:connector-curvature="0"
       style="fill:#4575b4;fill-opacity:1;stroke:none" />
    <path
       id="path3039-7-1-1"
       d="m 920.21708,176.11731 2.81868,7.98626 h 8.45603 l -6.57692,5.16758 2.3489,7.98625 -7.04669,-4.6978 -7.0467,4.6978 2.3489,-7.98625 -6.57692,-5.16758 h 8.45604 z"
       inkscape:connector-curvature="0"
       style="fill:#4575b4;fill-opacity:1;stroke:none" />
    <path
       id="path3039-11-2-2"
       d="m 947.90635,53.619353 2.81868,7.98625 h 8.45603 l -6.57691,5.16758 2.34889,7.98625 -7.04669,-4.6978 -7.04669,4.6978 2.34889,-7.98625 -6.57691,-5.16758 h 8.45603 z"
       inkscape:connector-curvature="0"
       style="fill:#4575b4;fill-opacity:1;stroke:none" />
    <text
       xml:space="preserve"
       style="font-size:64.75241089px;font-style:normal;font-variant:normal;font-weight:normal;font-stretch:normal;line-height:125%;letter-spacing:0px;word-spacing:0px;fill:#f11b1b;fill-opacity:1;stroke:none;font-family:Lato;-inkscape-font-specification:Lato"
       x="808.66272"
       y="133.9174"
       id="text3906-3-5"
       sodipodi:linespacing="125%"><tspan
         sodipodi:role="line"
         id="tspan3908-3-7"
         x="808.66272"
         y="133.9174"><tspan
   style="fill:#4575b4;fill-opacity:1"
   id="tspan4021-4">BR</tspan>EXIT</tspan></text>
    <path
       id="path3039-11-2-4-4"
       d="m 1043.7718,99.185501 2.8187,7.986239 h 8.456 l -6.5769,5.16758 2.3489,7.98625 -7.0467,-4.6978 -7.0467,4.6978 2.3489,-7.98625 -6.5769,-5.16758 h 8.456 z"
       inkscape:connector-curvature="0"
       style="fill:#f11b1b;fill-opacity:1;stroke:none" />
    <path
       id="path3039-11-2-2-7"
       d="m 951.18936,273.07498 3.35743,9.51271 h 10.07227 l -7.83399,6.15528 2.79785,9.51271 -8.39356,-5.59572 -8.39356,5.59572 2.79785,-9.51271 -7.83399,-6.15528 h 10.07227 z"
       inkscape:connector-curvature="0"
       style="fill:#4575b4;fill-opacity:1;stroke:none" />
    <text
       xml:space="preserve"
       style="font-size:64.75241089px;font-style:normal;font-variant:normal;font-weight:normal;font-stretch:normal;line-height:125%;letter-spacing:0px;word-spacing:0px;fill:#f11b1b;fill-opacity:1;stroke:none;font-family:Lato;-inkscape-font-specification:Lato"
       x="811.94574"
       y="355.39331"
       id="text3906-3-5-3"
       sodipodi:linespacing="125%"><tspan
         sodipodi:role="line"
         id="tspan3908-3-7-0"
         x="811.94574"
         y="355.39331"><tspan
   style="fill:#4575b4;fill-opacity:1"
   id="tspan4021-4-3">BR</tspan>EXIT</tspan></text>
    <path
       id="path3039-11-2-2-7-2"
       d="m 918.73374,244.02416 3.35743,9.51271 h 10.07227 l -7.83399,6.15528 2.79785,9.51271 -8.39356,-5.59572 -8.39356,5.59572 2.79785,-9.51271 -7.83399,-6.15528 h 10.07227 z"
       inkscape:connector-curvature="0"
       style="fill:#4575b4;fill-opacity:1;stroke:none" />
    <path
       id="path3039-11-2-2-7-5"
       d="m 874.03449,232.15486 3.35743,9.51271 h 10.07227 l -7.83399,6.15528 2.79785,9.51271 -8.39356,-5.59572 -8.39356,5.59572 2.79785,-9.51271 -7.83399,-6.15528 h 10.07227 z"
       inkscape:connector-curvature="0"
       style="fill:#4575b4;fill-opacity:1;stroke:none" />
    <path
       id="path3039-11-2-2-7-20"
       d="m 826.30478,245.79192 3.35743,9.51271 h 10.07227 l -7.83399,6.15528 2.79785,9.51271 -8.39356,-5.59572 -8.39356,5.59572 2.79785,-9.51271 -7.83399,-6.15528 h 10.07227 z"
       inkscape:connector-curvature="0"
       style="fill:#4575b4;fill-opacity:1;stroke:none" />
    <path
       id="path3039-11-2-2-7-3"
       d="m 798.52558,279.3795 3.35743,9.51271 h 10.07227 l -7.83399,6.15528 2.79785,9.51271 -8.39356,-5.59572 -8.39356,5.59572 2.79785,-9.51271 -7.83399,-6.15528 h 10.07227 z"
       inkscape:connector-curvature="0"
       style="fill:#4575b4;fill-opacity:1;stroke:none" />
    <path
       id="path3039-11-2-2-7-7"
       d="m 785.89868,321.8059 3.35743,9.51271 h 10.07227 l -7.83399,6.15528 2.79785,9.51271 -8.39356,-5.59572 -8.39356,5.59572 2.79785,-9.51271 -7.83399,-6.15528 h 10.07227 z"
       inkscape:connector-curvature="0"
       style="fill:#4575b4;fill-opacity:1;stroke:none" />
    <path
       id="path3039-11-2-2-7-29"
       d="m 798.27305,367.26277 3.35743,9.51271 h 10.07227 l -7.83399,6.15528 2.79785,9.51271 -8.39356,-5.59572 -8.39356,5.59572 2.79785,-9.51271 -7.83399,-6.15528 h 10.07227 z"
       inkscape:connector-curvature="0"
       style="fill:#4575b4;fill-opacity:1;stroke:none" />
    <path
       id="path3039-11-2-2-7-75"
       d="m 829.33524,397.31481 3.35743,9.51271 h 10.07227 l -7.83399,6.15528 2.79785,9.51271 -8.39356,-5.59572 -8.39356,5.59572 2.79785,-9.51271 -7.83399,-6.15528 h 10.07227 z"
       inkscape:connector-curvature="0"
       style="fill:#4575b4;fill-opacity:1;stroke:none" />
    <path
       id="path3039-11-2-2-7-34"
       d="m 878.83271,407.92141 3.35743,9.51271 h 10.07227 l -7.83399,6.15528 2.79785,9.51271 -8.39356,-5.59572 -8.39356,5.59572 2.79785,-9.51271 -7.83399,-6.15528 h 10.07227 z"
       inkscape:connector-curvature="0"
       style="fill:#4575b4;fill-opacity:1;stroke:none" />
    <path
       id="path3039-11-2-2-7-32"
       d="m 924.28958,395.79958 3.35743,9.51271 h 10.07227 l -7.83399,6.15528 2.79785,9.51271 -8.39356,-5.59572 -8.39356,5.59572 2.79785,-9.51271 -7.83399,-6.15528 h 10.07227 z"
       inkscape:connector-curvature="0"
       style="fill:#4575b4;fill-opacity:1;stroke:none" />
    <path
       id="path3039-11-2-2-7-1"
       d="m 952.32131,364.23231 3.35743,9.51271 h 10.07227 l -7.83399,6.15528 2.79785,9.51271 -8.39356,-5.59572 -8.39356,5.59572 2.79785,-9.51271 -7.83399,-6.15528 h 10.07227 z"
       inkscape:connector-curvature="0"
       style="fill:#4575b4;fill-opacity:1;stroke:none" />
    <path
       id="path3039-11-2-2-7-13"
       d="m 1047.0231,319.53306 3.3574,9.51271 h 10.0723 l -7.834,6.15528 2.7979,9.51271 -8.3936,-5.59572 -8.3936,5.59572 2.7979,-9.51271 -7.834,-6.15528 h 10.0723 z"
       inkscape:connector-curvature="0"
       style="fill:#f11b1b;fill-opacity:1;stroke:none" />
    <path
       id="path3039-11-2-2-7-25"
       d="m 961.54343,497.32885 3.35743,9.51271 h 10.07227 l -7.83399,6.15528 2.79785,9.51271 -8.39356,-5.59572 -8.39356,5.59572 2.79785,-9.51271 -7.83399,-6.15528 H 958.186 z"
       inkscape:connector-curvature="0"
       style="fill:#4575b4;fill-opacity:1;stroke:none" />
    <text
       xml:space="preserve"
       style="font-size:55.5883255px;font-style:normal;font-variant:normal;font-weight:normal;font-stretch:normal;line-height:125%;letter-spacing:0px;word-spacing:0px;fill:#f11b1b;fill-opacity:1;stroke:none;font-family:Lato;-inkscape-font-specification:Lato"
       x="814.5108"
       y="578.13196"
       id="text3906-3-5-3-3"
       sodipodi:linespacing="125%"><tspan
         sodipodi:role="line"
         id="tspan3908-3-7-0-5"
         x="814.5108"
         y="578.13196"><tspan
   style="fill:#4575b4;fill-opacity:1"
   id="tspan4021-4-3-1">BR</tspan>EXIT</tspan></text>
    <path
       id="path3039-11-2-2-7-2-2"
       d="m 929.08781,468.27803 3.35743,9.51271 h 10.07227 l -7.83399,6.15528 2.79785,9.51271 -8.39356,-5.59572 -8.39356,5.59572 2.79785,-9.51271 -7.83399,-6.15528 h 10.07227 z"
       inkscape:connector-curvature="0"
       style="fill:#4575b4;fill-opacity:1;stroke:none" />
    <path
       id="path3039-11-2-2-7-5-2"
       d="m 884.38856,456.40873 3.35743,9.51271 h 10.07227 l -7.83399,6.15528 2.79785,9.51271 -8.39356,-5.59572 -8.39356,5.59572 2.79785,-9.51271 -7.83399,-6.15528 h 10.07227 z"
       inkscape:connector-curvature="0"
       style="fill:#4575b4;fill-opacity:1;stroke:none" />
    <path
       id="path3039-11-2-2-7-20-2"
       d="m 836.65885,470.04579 3.35743,9.51271 h 10.07227 l -7.83399,6.15528 2.79785,9.51271 -8.39356,-5.59572 -8.39356,5.59572 2.79785,-9.51271 -7.83399,-6.15528 h 10.07227 z"
       inkscape:connector-curvature="0"
       style="fill:#4575b4;fill-opacity:1;stroke:none" />
    <path
       id="path3039-11-2-2-7-3-6"
       d="m 808.87965,503.63337 3.35743,9.51271 h 10.07227 l -7.83399,6.15528 2.79785,9.51271 -8.39356,-5.59572 -8.39356,5.59572 2.79785,-9.51271 -7.83399,-6.15528 h 10.07227 z"
       inkscape:connector-curvature="0"
       style="fill:#4575b4;fill-opacity:1;stroke:none" />
    <path
       id="path3039-11-2-2-7-7-4"
       d="m 794.73753,548.22801 3.35743,9.51271 h 10.07227 l -7.83399,6.15528 2.79785,9.51271 -8.39356,-5.59572 -8.39356,5.59572 2.79785,-9.51271 -7.83399,-6.15528 h 10.07227 z"
       inkscape:connector-curvature="0"
       style="fill:#4575b4;fill-opacity:1;stroke:none" />
    <path
       id="path3039-11-2-2-7-29-0"
       d="m 808.62712,591.51664 3.35743,9.51271 h 10.07227 l -7.83399,6.15528 2.79785,9.51271 -8.39356,-5.59572 -8.39356,5.59572 2.79785,-9.51271 -7.83399,-6.15528 h 10.07227 z"
       inkscape:connector-curvature="0"
       style="fill:#4575b4;fill-opacity:1;stroke:none" />
    <path
       id="path3039-11-2-2-7-75-7"
       d="m 839.68931,621.56868 3.35743,9.51271 h 10.07227 l -7.83399,6.15528 2.79785,9.51271 -8.39356,-5.59572 -8.39356,5.59572 2.79785,-9.51271 -7.83399,-6.15528 h 10.07227 z"
       inkscape:connector-curvature="0"
       style="fill:#4575b4;fill-opacity:1;stroke:none" />
    <path
       id="path3039-11-2-2-7-34-0"
       d="m 889.18678,632.17528 3.35743,9.51271 h 10.07227 l -7.83399,6.15528 2.79785,9.51271 -8.39356,-5.59572 -8.39356,5.59572 2.79785,-9.51271 -7.83399,-6.15528 h 10.07227 z"
       inkscape:connector-curvature="0"
       style="fill:#4575b4;fill-opacity:1;stroke:none" />
    <path
       id="path3039-11-2-2-7-32-3"
       d="m 934.64365,620.05345 3.35743,9.51271 h 10.07227 l -7.83399,6.15528 2.79785,9.51271 -8.39356,-5.59572 -8.39356,5.59572 2.79785,-9.51271 -7.83399,-6.15528 h 10.07227 z"
       inkscape:connector-curvature="0"
       style="fill:#4575b4;fill-opacity:1;stroke:none" />
    <path
       id="path3039-11-2-2-7-1-4"
       d="m 962.67538,588.48618 3.35743,9.51271 h 10.07227 l -7.83399,6.15528 2.79785,9.51271 -8.39356,-5.59572 -8.39356,5.59572 2.79785,-9.51271 -7.83399,-6.15528 h 10.07227 z"
       inkscape:connector-curvature="0"
       style="fill:#4575b4;fill-opacity:1;stroke:none" />
    <path
       id="path3039-11-2-2-7-13-0"
       d="m 1018.4863,546.31231 3.3574,9.51271 h 10.0723 l -7.834,6.15528 2.7979,9.51271 -8.3936,-5.59572 -8.3936,5.59572 2.7979,-9.51271 -7.834,-6.15528 h 10.0723 z"
       inkscape:connector-curvature="0"
       style="fill:#f11b1b;fill-opacity:1;stroke:none" />
    <path
       id="path3039-11-2-2-7-25-5"
       d="m 972.78866,730.30868 3.35743,9.51271 h 10.07227 l -7.83399,6.15528 2.79785,9.51271 -8.39356,-5.59572 -8.39356,5.59572 2.79785,-9.51271 -7.83399,-6.15528 h 10.07227 z"
       inkscape:connector-curvature="0"
       style="fill:#4575b4;fill-opacity:1;stroke:none" />
    <text
       xml:space="preserve"
       style="font-size:72.32103729px;font-style:normal;font-variant:normal;font-weight:normal;font-stretch:normal;line-height:125%;letter-spacing:0px;word-spacing:0px;fill:#f11b1b;fill-opacity:1;stroke:none;font-family:Lato;-inkscape-font-specification:Lato"
       x="817.8717"
       y="818.61182"
       id="text3906-3-5-3-3-6"
       sodipodi:linespacing="125%"><tspan
         sodipodi:role="line"
         id="tspan3908-3-7-0-5-4"
         x="817.8717"
         y="818.61182"><tspan
   style="fill:#4575b4;fill-opacity:1"
   id="tspan4021-4-3-1-8">BR</tspan>EXIT</tspan></text>
    <path
       id="path3039-11-2-2-7-2-2-2"
       d="m 940.33304,701.25786 3.35743,9.51271 h 10.07227 l -7.83399,6.15528 2.79785,9.51271 -8.39356,-5.59572 -8.39356,5.59572 2.79785,-9.51271 -7.83399,-6.15528 h 10.07227 z"
       inkscape:connector-curvature="0"
       style="fill:#4575b4;fill-opacity:1;stroke:none" />
    <path
       id="path3039-11-2-2-7-5-2-1"
       d="m 895.63379,689.38856 3.35743,9.51271 h 10.07227 l -7.83399,6.15528 2.79785,9.51271 -8.39356,-5.59572 -8.39356,5.59572 2.79785,-9.51271 -7.83399,-6.15528 h 10.07227 z"
       inkscape:connector-curvature="0"
       style="fill:#4575b4;fill-opacity:1;stroke:none" />
    <path
       id="path3039-11-2-2-7-20-2-6"
       d="m 847.90408,703.02562 3.35743,9.51271 h 10.07227 l -7.83399,6.15528 2.79785,9.51271 -8.39356,-5.59572 -8.39356,5.59572 2.79785,-9.51271 -7.83399,-6.15528 h 10.07227 z"
       inkscape:connector-curvature="0"
       style="fill:#4575b4;fill-opacity:1;stroke:none" />
    <path
       id="path3039-11-2-2-7-3-6-8"
       d="m 820.12488,736.6132 3.35743,9.51271 h 10.07227 l -7.83399,6.15528 2.79785,9.51271 -8.39356,-5.59572 -8.39356,5.59572 2.79785,-9.51271 -7.83399,-6.15528 h 10.07227 z"
       inkscape:connector-curvature="0"
       style="fill:#4575b4;fill-opacity:1;stroke:none" />
    <path
       id="path3039-11-2-2-7-7-4-3"
       d="m 805.98276,781.20784 3.35743,9.51271 h 10.07227 l -7.83399,6.15528 2.79785,9.51271 -8.39356,-5.59572 -8.39356,5.59572 2.79785,-9.51271 -7.83399,-6.15528 h 10.07227 z"
       inkscape:connector-curvature="0"
       style="fill:#4575b4;fill-opacity:1;stroke:none" />
    <path
       id="path3039-11-2-2-7-29-0-1"
       d="m 819.87235,824.49647 3.35743,9.51271 h 10.07227 l -7.83399,6.15528 2.79785,9.51271 -8.39356,-5.59572 -8.39356,5.59572 2.79785,-9.51271 -7.83399,-6.15528 h 10.07227 z"
       inkscape:connector-curvature="0"
       style="fill:#4575b4;fill-opacity:1;stroke:none" />
    <path
       id="path3039-11-2-2-7-75-7-4"
       d="m 850.93454,854.54851 3.35743,9.51271 h 10.07227 l -7.83399,6.15528 2.79785,9.51271 -8.39356,-5.59572 -8.39356,5.59572 2.79785,-9.51271 -7.83399,-6.15528 h 10.07227 z"
       inkscape:connector-curvature="0"
       style="fill:#4575b4;fill-opacity:1;stroke:none" />
    <path
       id="path3039-11-2-2-7-34-0-8"
       d="m 900.43201,865.15511 3.35743,9.51271 h 10.07227 l -7.83399,6.15528 2.79785,9.51271 -8.39356,-5.59572 -8.39356,5.59572 2.79785,-9.51271 -7.83399,-6.15528 h 10.07227 z"
       inkscape:connector-curvature="0"
       style="fill:#4575b4;fill-opacity:1;stroke:none" />
    <path
       id="path3039-11-2-2-7-32-3-4"
       d="m 945.88888,853.03328 3.35743,9.51271 h 10.07227 l -7.83399,6.15528 2.79785,9.51271 -8.39356,-5.59572 -8.39356,5.59572 2.79785,-9.51271 -7.83399,-6.15528 h 10.07227 z"
       inkscape:connector-curvature="0"
       style="fill:#4575b4;fill-opacity:1;stroke:none" />
    <path
       id="path3039-11-2-2-7-1-4-9"
       d="m 973.92061,821.46601 3.35743,9.51271 h 10.07227 l -7.83399,6.15528 2.79785,9.51271 -8.39356,-5.59572 -8.39356,5.59572 2.79785,-9.51271 -7.83399,-6.15528 h 10.07227 z"
       inkscape:connector-curvature="0"
       style="fill:#4575b4;fill-opacity:1;stroke:none" />
    <path
       id="path3039-11-2-2-7-13-0-2"
       d="m 1027.2315,782.14928 3.3574,9.51271 h 10.0723 l -7.834,6.15528 2.7979,9.51271 -8.3936,-5.59572 -8.3936,5.59572 2.7979,-9.51271 -7.834,-6.15528 h 10.0723 z"
       inkscape:connector-curvature="0"
       style="fill:#f11b1b;fill-opacity:1;stroke:none" />
    <path
       id="path3039-11-2-2-7-25-5-0"
       d="m 943.27583,956.37818 2.7827,7.88433 h 8.3481 l -6.49297,5.10163 2.31892,7.8843 -6.95675,-4.63785 -6.95675,4.63785 2.31891,-7.8843 -6.49297,-5.10163 h 8.3481 z"
       inkscape:connector-curvature="0"
       style="fill:#4575b4;fill-opacity:1;stroke:none" />
    <text
       xml:space="preserve"
       style="font-size:72.32103729px;font-style:normal;font-variant:normal;font-weight:normal;font-stretch:normal;line-height:125%;letter-spacing:0px;word-spacing:0px;fill:#f11b1b;fill-opacity:1;stroke:none;font-family:Lato;-inkscape-font-specification:Lato"
       x="827.38263"
       y="1042.5404"
       id="text3906-3-5-3-3-6-7"
       sodipodi:linespacing="125%"><tspan
         sodipodi:role="line"
         id="tspan3908-3-7-0-5-4-0"
         x="827.38263"
         y="1042.5404"><tspan
   style="fill:#4575b4;fill-opacity:1"
   id="tspan4021-4-3-1-8-6">BR</tspan>EXIT</tspan></text>
    <path
       id="path3039-11-2-2-7-2-2-2-0"
       d="m 916.25343,935.81044 2.7827,7.88432 h 8.3481 l -6.49296,5.10162 2.31891,7.88432 -6.95675,-4.63784 -6.95675,4.63784 2.31891,-7.88432 -6.49296,-5.10162 h 8.3481 z"
       inkscape:connector-curvature="0"
       style="fill:#4575b4;fill-opacity:1;stroke:none" />
    <path
       id="path3039-11-2-2-7-5-2-1-7"
       d="m 880.67771,927.52405 2.78271,7.88432 h 8.34809 l -6.49297,5.10162 2.31892,7.88432 -6.95675,-4.63784 -6.95674,4.63784 2.31891,-7.88432 -6.49297,-5.10162 h 8.3481 z"
       inkscape:connector-curvature="0"
       style="fill:#4575b4;fill-opacity:1;stroke:none" />
    <path
       id="path3039-11-2-2-7-20-2-6-0"
       d="m 844.30728,940.86498 2.78271,7.88432 h 8.3481 l -6.49296,5.10162 2.31891,7.88432 -6.95676,-4.63784 -6.95674,4.63784 2.31891,-7.88432 -6.49296,-5.10162 h 8.3481 z"
       inkscape:connector-curvature="0"
       style="fill:#4575b4;fill-opacity:1;stroke:none" />
    <path
       id="path3039-11-2-2-7-3-6-8-5"
       d="m 818.25288,968.95557 2.78271,7.88432 h 8.34809 l -6.49297,5.1016 2.31891,7.88439 -6.95674,-4.63785 -6.95675,4.63785 2.31892,-7.88439 -6.49297,-5.1016 h 8.34809 z"
       inkscape:connector-curvature="0"
       style="fill:#4575b4;fill-opacity:1;stroke:none" />
    <path
       id="path3039-11-2-2-7-7-4-3-6"
       d="m 808.55192,1006.6741 2.78271,7.8842 h 8.34809 l -6.49296,5.1017 2.31891,7.8843 -6.95675,-4.6378 -6.95675,4.6378 2.31892,-7.8843 -6.49297,-5.1017 h 8.3481 z"
       inkscape:connector-curvature="0"
       style="fill:#4575b4;fill-opacity:1;stroke:none" />
    <path
       id="path3039-11-2-2-7-29-0-1-7"
       d="m 819.81134,1043.0577 2.78271,7.8843 h 8.3481 l -6.49297,5.1017 2.31892,7.8843 -6.95676,-4.638 -6.95674,4.638 2.31891,-7.8843 -6.49297,-5.1017 h 8.3481 z"
       inkscape:connector-curvature="0"
       style="fill:#4575b4;fill-opacity:1;stroke:none" />
    <path
       id="path3039-11-2-2-7-75-7-4-3"
       d="m 842.9517,1067.1897 2.78271,7.8844 h 8.34809 l -6.49296,5.1016 2.31891,7.8844 -6.95675,-4.6379 -6.95675,4.6379 2.31891,-7.8844 -6.49296,-5.1016 h 8.3481 z"
       inkscape:connector-curvature="0"
       style="fill:#4575b4;fill-opacity:1;stroke:none" />
    <path
       id="path3039-11-2-2-7-34-0-8-8"
       d="m 878.4965,1078.82 2.78269,7.8842 h 8.3481 l -6.49296,5.1017 2.31891,7.8843 -6.95674,-4.6378 -6.95676,4.6378 2.31891,-7.8843 -6.49296,-5.1017 h 8.3481 z"
       inkscape:connector-curvature="0"
       style="fill:#4575b4;fill-opacity:1;stroke:none" />
    <path
       id="path3039-11-2-2-7-32-3-4-4"
       d="m 913.43744,1075.133 2.78271,7.8844 h 8.34809 l -6.49297,5.1016 2.31891,7.8843 -6.95674,-4.6378 -6.95674,4.6378 2.31891,-7.8843 -6.49297,-5.1016 h 8.34809 z"
       inkscape:connector-curvature="0"
       style="fill:#4575b4;fill-opacity:1;stroke:none" />
    <path
       id="path3039-11-2-2-7-1-4-9-9"
       d="m 941.5407,1053.2731 2.7827,7.8843 h 8.3481 l -6.49297,5.1016 2.31892,7.8843 -6.95675,-4.6378 -6.95675,4.6378 2.31892,-7.8843 -6.49296,-5.1016 h 8.34808 z"
       inkscape:connector-curvature="0"
       style="fill:#4575b4;fill-opacity:1;stroke:none" />
    <path
       id="path3039-11-2-2-7-25-5-0-6"
       d="m 1037.0382,1008.774 2.7827,7.8844 h 8.3481 l -6.493,5.1016 2.3189,7.8843 -6.9567,-4.6379 -6.9568,4.6379 2.3189,-7.8843 -6.4929,-5.1016 h 8.3481 z"
       inkscape:connector-curvature="0"
       style="fill:#f11b1b;fill-opacity:1;stroke:none" />
    <text
       xml:space="preserve"
       style="font-size:72.32103729px;font-style:normal;font-variant:normal;font-weight:normal;font-stretch:normal;line-height:125%;letter-spacing:0px;word-spacing:0px;fill:#f11b1b;fill-opacity:1;stroke:none;font-family:Lato;-inkscape-font-specification:Lato"
       x="823.5647"
       y="1251.0011"
       id="text3906-3-5-3-3-6-7-7"
       sodipodi:linespacing="125%"><tspan
         sodipodi:role="line"
         id="tspan3908-3-7-0-5-4-0-7"
         x="823.5647"
         y="1251.0011"><tspan
   style="fill:#4575b4;fill-opacity:1"
   id="tspan4021-4-3-1-8-6-4">BR</tspan>EXIT</tspan></text>
    <path
       id="path3039-11-2-2-7-25-5-0-6-7"
       d="m 1078.9296,1215.972 2.7827,7.8844 h 8.3481 l -6.493,5.1016 2.3189,7.8843 -6.9567,-4.6379 -6.9568,4.6379 2.3189,-7.8843 -6.4929,-5.1016 h 8.3481 z"
       inkscape:connector-curvature="0"
       style="fill:#f11b1b;fill-opacity:1;stroke:none" />
    <path
       id="path3039-11-2-2-7-25-5-0-1"
       d="m 938.11343,1167.3642 2.7827,7.8844 h 8.3481 l -6.4929,5.1016 2.3189,7.8843 -6.9568,-4.6379 -6.9567,4.6379 2.3189,-7.8843 -6.493,-5.1016 h 8.3481 z"
       inkscape:connector-curvature="0"
       style="fill:#4575b4;fill-opacity:1;stroke:none" />
    <path
       id="path3039-11-2-2-7-2-2-2-0-5"
       d="m 911.09105,1146.7965 2.7827,7.8843 h 8.34808 l -6.49294,5.1016 2.31891,7.8844 -6.95675,-4.6379 -6.95675,4.6379 2.31891,-7.8844 -6.49296,-5.1016 h 8.3481 z"
       inkscape:connector-curvature="0"
       style="fill:#4575b4;fill-opacity:1;stroke:none" />
    <path
       id="path3039-11-2-2-7-5-2-1-7-5"
       d="m 875.51533,1138.5101 2.78271,7.8843 h 8.34809 l -6.49297,5.1016 2.31892,7.8844 -6.95675,-4.6379 -6.95674,4.6379 2.31891,-7.8844 -6.49297,-5.1016 h 8.3481 z"
       inkscape:connector-curvature="0"
       style="fill:#4575b4;fill-opacity:1;stroke:none" />
    <path
       id="path3039-11-2-2-7-20-2-6-0-4"
       d="m 839.1449,1151.851 2.78271,7.8844 h 8.3481 l -6.49296,5.1016 2.31891,7.8843 -6.95676,-4.6378 -6.95674,4.6378 2.31891,-7.8843 -6.49296,-5.1016 h 8.3481 z"
       inkscape:connector-curvature="0"
       style="fill:#4575b4;fill-opacity:1;stroke:none" />
    <path
       id="path3039-11-2-2-7-3-6-8-5-0"
       d="m 813.0905,1179.9416 2.78271,7.8843 h 8.34809 l -6.49297,5.1016 2.31891,7.8844 -6.95674,-4.6378 -6.95675,4.6378 2.31892,-7.8844 -6.49297,-5.1016 h 8.34809 z"
       inkscape:connector-curvature="0"
       style="fill:#4575b4;fill-opacity:1;stroke:none" />
    <path
       id="path3039-11-2-2-7-7-4-3-6-2"
       d="m 803.38954,1217.6602 2.78271,7.8842 h 8.34809 l -6.49296,5.1017 2.31891,7.8843 -6.95675,-4.6378 -6.95675,4.6378 2.31892,-7.8843 -6.49297,-5.1017 h 8.3481 z"
       inkscape:connector-curvature="0"
       style="fill:#4575b4;fill-opacity:1;stroke:none" />
    <path
       id="path3039-11-2-2-7-29-0-1-7-6"
       d="m 814.64896,1254.0438 2.78271,7.8843 h 8.3481 l -6.49297,5.1017 2.31892,7.8843 -6.95676,-4.638 -6.95674,4.638 2.31891,-7.8843 -6.49297,-5.1017 h 8.3481 z"
       inkscape:connector-curvature="0"
       style="fill:#4575b4;fill-opacity:1;stroke:none" />
    <path
       id="path3039-11-2-2-7-75-7-4-3-0"
       d="m 837.78932,1278.1758 2.78271,7.8844 h 8.34809 l -6.49296,5.1016 2.31891,7.8844 -6.95675,-4.6379 -6.95675,4.6379 2.31891,-7.8844 -6.49296,-5.1016 h 8.3481 z"
       inkscape:connector-curvature="0"
       style="fill:#4575b4;fill-opacity:1;stroke:none" />
    <path
       id="path3039-11-2-2-7-34-0-8-8-6"
       d="m 873.33412,1289.8061 2.78269,7.8842 h 8.3481 l -6.49296,5.1017 2.31891,7.8843 -6.95674,-4.6378 -6.95676,4.6378 2.31891,-7.8843 -6.49296,-5.1017 h 8.3481 z"
       inkscape:connector-curvature="0"
       style="fill:#4575b4;fill-opacity:1;stroke:none" />
    <path
       id="path3039-11-2-2-7-32-3-4-4-1"
       d="m 908.27506,1286.1191 2.78271,7.8844 h 8.34809 l -6.49297,5.1016 2.31891,7.8843 -6.95674,-4.6378 -6.95674,4.6378 2.31891,-7.8843 -6.49297,-5.1016 h 8.34809 z"
       inkscape:connector-curvature="0"
       style="fill:#4575b4;fill-opacity:1;stroke:none" />
    <path
       id="path3039-11-2-2-7-1-4-9-9-1"
       d="m 936.37833,1264.2592 2.7827,7.8843 h 8.3481 l -6.493,5.1016 2.3189,7.8843 -6.9567,-4.6378 -6.9568,4.6378 2.319,-7.8843 -6.493,-5.1016 h 8.3481 z"
       inkscape:connector-curvature="0"
       style="fill:#4575b4;fill-opacity:1;stroke:none" />
    <path
       id="path3039-11-2-2-7-25-5-0-17"
       d="m 1336.4478,963.81851 2.7827,7.88435 h 8.3481 l -6.4929,5.1016 2.3189,7.8843 -6.9568,-4.6378 -6.9567,4.6378 2.3189,-7.8843 -6.493,-5.1016 h 8.3481 z"
       inkscape:connector-curvature="0"
       style="fill:#4575b4;fill-opacity:1;stroke:none"
       inkscape:export-filename="D:\Users\Matija\Dropbox\brexit2016\logo\brexit-logo-v2.png"
       inkscape:export-xdpi="130.78999"
       inkscape:export-ydpi="130.78999" />
    <text
       xml:space="preserve"
       style="font-size:72.32103729px;font-style:normal;font-variant:normal;font-weight:normal;font-stretch:normal;line-height:125%;letter-spacing:0px;word-spacing:0px;fill:#f11b1b;fill-opacity:1;stroke:none;font-family:Lato;-inkscape-font-specification:Lato"
       x="1220.5547"
       y="1049.9807"
       id="text3906-3-5-3-3-6-7-3"
       sodipodi:linespacing="125%"
       inkscape:export-filename="D:\Users\Matija\Dropbox\brexit2016\logo\brexit-logo-v2.png"
       inkscape:export-xdpi="130.78999"
       inkscape:export-ydpi="130.78999"><tspan
         sodipodi:role="line"
         id="tspan3908-3-7-0-5-4-0-0"
         x="1220.5547"
         y="1049.9807"><tspan
   style="fill:#4575b4;fill-opacity:1"
   id="tspan4021-4-3-1-8-6-0">BR</tspan>EXIT</tspan></text>
    <path
       id="path3039-11-2-2-7-2-2-2-0-4"
       d="m 1309.4254,943.25077 2.7827,7.88432 h 8.3481 l -6.4929,5.10162 2.3189,7.88432 -6.9568,-4.63784 -6.9567,4.63784 2.3189,-7.88432 -6.493,-5.10162 h 8.3481 z"
       inkscape:connector-curvature="0"
       style="fill:#4575b4;fill-opacity:1;stroke:none"
       inkscape:export-filename="D:\Users\Matija\Dropbox\brexit2016\logo\brexit-logo-v2.png"
       inkscape:export-xdpi="130.78999"
       inkscape:export-ydpi="130.78999" />
    <path
       id="path3039-11-2-2-7-5-2-1-7-8"
       d="m 1273.8497,934.96438 2.7827,7.88432 h 8.3481 l -6.493,5.10162 2.319,7.88432 -6.9568,-4.63784 -6.9567,4.63784 2.3189,-7.88432 -6.493,-5.10162 h 8.3481 z"
       inkscape:connector-curvature="0"
       style="fill:#4575b4;fill-opacity:1;stroke:none"
       inkscape:export-filename="D:\Users\Matija\Dropbox\brexit2016\logo\brexit-logo-v2.png"
       inkscape:export-xdpi="130.78999"
       inkscape:export-ydpi="130.78999" />
    <path
       id="path3039-11-2-2-7-20-2-6-0-3"
       d="m 1237.4793,948.30531 2.7827,7.88432 h 8.3481 l -6.493,5.10162 2.3189,7.88431 -6.9567,-4.63783 -6.9568,4.63783 2.319,-7.88431 -6.493,-5.10162 h 8.3481 z"
       inkscape:connector-curvature="0"
       style="fill:#4575b4;fill-opacity:1;stroke:none"
       inkscape:export-filename="D:\Users\Matija\Dropbox\brexit2016\logo\brexit-logo-v2.png"
       inkscape:export-xdpi="130.78999"
       inkscape:export-ydpi="130.78999" />
    <path
       id="path3039-11-2-2-7-3-6-8-5-01"
       d="m 1211.4249,976.39586 2.7827,7.8844 h 8.3481 l -6.493,5.1016 2.3189,7.8843 -6.9567,-4.6378 -6.9568,4.6378 2.319,-7.8843 -6.493,-5.1016 h 8.3481 z"
       inkscape:connector-curvature="0"
       style="fill:#4575b4;fill-opacity:1;stroke:none"
       inkscape:export-filename="D:\Users\Matija\Dropbox\brexit2016\logo\brexit-logo-v2.png"
       inkscape:export-xdpi="130.78999"
       inkscape:export-ydpi="130.78999" />
    <path
       id="path3039-11-2-2-7-7-4-3-6-29"
       d="m 1201.7239,1014.1145 2.7827,7.8842 h 8.3481 l -6.4929,5.1017 2.3189,7.8843 -6.9568,-4.6378 -6.9567,4.6378 2.3189,-7.8843 -6.493,-5.1017 h 8.3481 z"
       inkscape:connector-curvature="0"
       style="fill:#4575b4;fill-opacity:1;stroke:none"
       inkscape:export-filename="D:\Users\Matija\Dropbox\brexit2016\logo\brexit-logo-v2.png"
       inkscape:export-xdpi="130.78999"
       inkscape:export-ydpi="130.78999" />
    <path
       id="path3039-11-2-2-7-29-0-1-7-0"
       d="m 1212.9833,1050.4981 2.7828,7.8843 h 8.3481 l -6.493,5.1017 2.3189,7.8843 -6.9568,-4.638 -6.9567,4.638 2.3189,-7.8843 -6.493,-5.1017 h 8.3481 z"
       inkscape:connector-curvature="0"
       style="fill:#4575b4;fill-opacity:1;stroke:none"
       inkscape:export-filename="D:\Users\Matija\Dropbox\brexit2016\logo\brexit-logo-v2.png"
       inkscape:export-xdpi="130.78999"
       inkscape:export-ydpi="130.78999" />
    <path
       id="path3039-11-2-2-7-75-7-4-3-3"
       d="m 1236.1237,1074.6301 2.7827,7.8844 h 8.3481 l -6.493,5.1016 2.319,7.8844 -6.9568,-4.6379 -6.9567,4.6379 2.3189,-7.8844 -6.493,-5.1016 h 8.3481 z"
       inkscape:connector-curvature="0"
       style="fill:#4575b4;fill-opacity:1;stroke:none"
       inkscape:export-filename="D:\Users\Matija\Dropbox\brexit2016\logo\brexit-logo-v2.png"
       inkscape:export-xdpi="130.78999"
       inkscape:export-ydpi="130.78999" />
    <path
       id="path3039-11-2-2-7-34-0-8-8-8"
       d="m 1271.6685,1086.2604 2.7827,7.8842 h 8.3481 l -6.493,5.1017 2.3189,7.8843 -6.9567,-4.6378 -6.9568,4.6378 2.319,-7.8843 -6.493,-5.1017 h 8.3481 z"
       inkscape:connector-curvature="0"
       style="fill:#4575b4;fill-opacity:1;stroke:none"
       inkscape:export-filename="D:\Users\Matija\Dropbox\brexit2016\logo\brexit-logo-v2.png"
       inkscape:export-xdpi="130.78999"
       inkscape:export-ydpi="130.78999" />
    <path
       id="path3039-11-2-2-7-32-3-4-4-8"
       d="m 1306.6094,1082.5734 2.7828,7.8844 h 8.348 l -6.4929,5.1016 2.3189,7.8843 -6.9568,-4.6378 -6.9567,4.6378 2.3189,-7.8843 -6.493,-5.1016 h 8.3481 z"
       inkscape:connector-curvature="0"
       style="fill:#4575b4;fill-opacity:1;stroke:none"
       inkscape:export-filename="D:\Users\Matija\Dropbox\brexit2016\logo\brexit-logo-v2.png"
       inkscape:export-xdpi="130.78999"
       inkscape:export-ydpi="130.78999" />
    <path
       id="path3039-11-2-2-7-1-4-9-9-5"
       d="m 1334.7127,1060.7135 2.7827,7.8843 h 8.3481 l -6.493,5.1016 2.319,7.8843 -6.9568,-4.6378 -6.9567,4.6378 2.3189,-7.8843 -6.493,-5.1016 h 8.3481 z"
       inkscape:connector-curvature="0"
       style="fill:#4575b4;fill-opacity:1;stroke:none"
       inkscape:export-filename="D:\Users\Matija\Dropbox\brexit2016\logo\brexit-logo-v2.png"
       inkscape:export-xdpi="130.78999"
       inkscape:export-ydpi="130.78999" />
    <path
       id="path3039-11-2-2-7-25-5-0-6-77"
       d="m 1430.2102,1016.2144 2.7827,7.8844 h 8.3481 l -6.493,5.1016 2.3189,7.8843 -6.9567,-4.6379 -6.9568,4.6379 2.3189,-7.8843 -6.4929,-5.1016 h 8.3481 z"
       inkscape:connector-curvature="0"
       style="fill:#f11b1b;fill-opacity:1;stroke:none"
       inkscape:export-filename="D:\Users\Matija\Dropbox\brexit2016\logo\brexit-logo-v2.png"
       inkscape:export-xdpi="130.78999"
       inkscape:export-ydpi="130.78999" />
    <text
       xml:space="preserve"
       style="font-size:9.42560577px;font-style:normal;font-variant:normal;font-weight:normal;font-stretch:normal;line-height:125%;letter-spacing:0px;word-spacing:0px;fill:#000000;fill-opacity:1;stroke:none;font-family:Lato;-inkscape-font-specification:Lato"
       x="1403.7424"
       y="1141.0842"
       id="text4699-0"
       sodipodi:linespacing="125%"><tspan
         sodipodi:role="line"
         id="tspan4701-8"
         x="1403.7424"
         y="1141.0842">export copy</tspan></text>
  </g>
</svg>
